<svg width="24" height="24" viewBox="0 0 24 24" fill="none" xmlns="http://www.w3.org/2000/svg">
<path d="M5.68623 19.4759C7.70602 19.6969 9.82146 19.9999 12.0004 19.9999C14.1794 19.9999 16.2949 19.6969 18.3146 19.4759C18.9375 19.4078 19.4318 18.9139 19.4987 18.2909C19.7149 16.2785 20.0004 14.1708 20.0004 11.9999C20.0004 9.82905 19.7149 7.72142 19.4987 5.70902C19.4318 5.08602 18.9375 4.59212 18.3146 4.52397C16.2949 4.30298 14.1794 4 12.0004 4C10.8315 4 9.68086 4.08776 8.55344 4.20285C8.26049 4.23276 7.98727 4.36357 7.7784 4.57114L4.56951 7.75997C4.35737 7.97079 4.2241 8.24837 4.19494 8.54602C4.08427 9.67557 4.00049 10.8285 4.00049 11.9999C4.00049 14.1708 4.28599 16.2785 4.50213 18.2909C4.56904 18.9139 5.06336 19.4078 5.68623 19.4759Z" stroke="#2CB4F6" stroke-width="2"/>
<path d="M16.0121 19.7378V14.807C16.0121 14.0906 15.4315 13.5098 14.7151 13.5096L9.28656 13.5079C8.56987 13.5077 7.98877 14.0886 7.98877 14.8053V19.7378C9.29581 19.8809 10.6357 19.9998 12.0004 19.9998C13.3652 19.9998 14.7051 19.8809 16.0121 19.7378Z" fill="white" stroke="#2CB4F6" stroke-width="2" stroke-linecap="round" stroke-linejoin="round"/>
<path d="M9.50879 4.1136L9.50879 7.99551C9.50879 8.71187 10.0894 9.29266 10.8057 9.29291L14.8761 9.29429C15.5928 9.29453 16.1739 8.7136 16.1739 7.99689L16.1739 4.27995C14.8154 4.12895 13.4209 4 11.9994 4C11.1591 4 10.3283 4.04535 9.50879 4.1136Z" fill="white" stroke="#2CB4F6" stroke-width="2" stroke-linecap="round" stroke-linejoin="round"/>
</svg>
