<svg width="25" height="24" viewBox="0 0 25 24" fill="none" xmlns="http://www.w3.org/2000/svg">
<path d="M7.02611 5.05131C6.47835 5.14539 6.09168 5.62773 6.06842 6.18302C5.99683 7.89248 5.89952 9.68232 5.89952 11.5257C5.89952 13.369 5.99683 15.1588 6.06842 16.8683C6.09167 17.4236 6.47835 17.9059 7.02611 18C8.06505 18.1784 8.92382 18.1784 9.96276 18C10.5105 17.9059 10.8972 17.4236 10.9205 16.8683C10.992 15.1588 11.0894 13.369 11.0894 11.5257C11.0894 9.68232 10.992 7.89248 10.9205 6.18302C10.8972 5.62773 10.5105 5.14539 9.96276 5.05131C8.92382 4.87287 8.06505 4.87287 7.02611 5.05131Z" stroke="#2CB4F6" stroke-width="1.85184"/>
<path d="M15.4368 5.05131C14.889 5.14539 14.5023 5.62773 14.4791 6.18302C14.4075 7.89248 14.3102 9.68232 14.3102 11.5257C14.3102 13.369 14.4075 15.1588 14.4791 16.8683C14.5023 17.4236 14.889 17.9059 15.4368 18C16.4757 18.1784 17.3345 18.1784 18.3734 18C18.9212 17.9059 19.3078 17.4236 19.3311 16.8683C19.4027 15.1588 19.5 13.369 19.5 11.5257C19.5 9.68232 19.4027 7.89248 19.3311 6.18302C19.3078 5.62773 18.9212 5.14539 18.3734 5.05131C17.3345 4.87287 16.4757 4.87287 15.4368 5.05131Z" stroke="#2CB4F6" stroke-width="1.85184"/>
</svg>
