<svg width="49" height="48" viewBox="0 0 49 48" fill="none" xmlns="http://www.w3.org/2000/svg">
<path d="M7.47461 25.5821C8.62713 24.9389 9.97682 24.7448 11.2639 25.037" stroke="#454D61" stroke-width="4.19337" stroke-linecap="round" stroke-linejoin="round"/>
<path d="M15.2317 17.0727C14.4967 15.9647 14.1921 14.6262 14.3752 13.3093" stroke="#454D61" stroke-width="4.19337" stroke-linecap="round" stroke-linejoin="round"/>
<path d="M22.1373 7.5C21.4138 9.71643 21.509 12.1188 22.4057 14.2711" stroke="#454D61" stroke-width="4.19337" stroke-linecap="round" stroke-linejoin="round"/>
<path d="M21.0035 24.1593C19.2209 25.9181 16.9459 29.0199 15.4538 31.1546C14.5703 32.4185 14.925 34.1523 16.2485 34.9438C22.3065 38.5665 28.9544 41.1393 35.2585 40.87C36.4792 40.8179 37.4521 39.8581 37.5208 38.6382C37.8753 32.3385 35.392 25.6565 31.8513 19.5503C31.0777 18.2163 29.349 17.8384 28.0733 18.7046C25.9185 20.1677 22.7861 22.4005 21.0035 24.1593Z" fill="#2CB4F6" fill-opacity="0.5" stroke="#454D61" stroke-width="4.19337" stroke-linecap="round" stroke-linejoin="round"/>
<path d="M6.61214 17.737C6.13599 17.737 5.75 17.351 5.75 16.8748C5.75 16.3987 6.13599 16.0127 6.61214 16.0127" stroke="#454D61" stroke-width="4.19337" stroke-linecap="round" stroke-linejoin="round"/>
<path d="M6.61247 16.0128C7.08862 16.0128 7.47461 16.3988 7.47461 16.8749C7.47461 17.3511 7.08862 17.7371 6.61247 17.7371" stroke="#454D61" stroke-width="4.19337" stroke-linecap="round" stroke-linejoin="round"/>
</svg>
