<svg width="81" height="80" viewBox="0 0 81 80" fill="none" xmlns="http://www.w3.org/2000/svg">
<g filter="url(#filter0_d_414_4755)">
<rect x="16.8333" y="8" width="48" height="48" rx="16" fill="#2CB4F6"/>
<path d="M44.2896 32.0127C46.1999 32.0127 47.7485 30.4641 47.7485 28.5538C47.7485 27.0761 46.8218 25.8148 45.5178 25.3193" stroke="white" stroke-width="2" stroke-linecap="round" stroke-linejoin="round"/>
<path d="M38.4694 31.327C40.5402 31.327 42.2188 29.6483 42.2188 27.5776C42.2188 25.5068 40.5402 23.8281 38.4694 23.8281C36.3986 23.8281 34.72 25.5068 34.72 27.5776C34.72 29.6483 36.3986 31.327 38.4694 31.327Z" stroke="white" stroke-width="2" stroke-linecap="round" stroke-linejoin="round"/>
<path d="M44.2124 36.5946C46.0464 37.8161 44.808 40.172 42.6044 40.172H34.3293C32.1257 40.172 30.8873 37.8161 32.7213 36.5946C34.3664 35.4989 36.3421 34.8604 38.4669 34.8604C40.5917 34.8604 42.5673 35.4989 44.2124 36.5946Z" stroke="white" stroke-width="2"/>
<path d="M42.2856 39.172C41.7334 39.172 41.2856 39.6197 41.2856 40.172C41.2856 40.7243 41.7334 41.172 42.2856 41.172V39.172ZM49.014 36.8717L48.4597 37.704L49.014 36.8717ZM47.9297 35.1461C47.4232 34.9257 46.8341 35.1575 46.6137 35.6639C46.3933 36.1703 46.6252 36.7595 47.1316 36.9799L47.9297 35.1461ZM42.2856 41.172H47.5306V39.172H42.2856V41.172ZM47.5306 41.172C48.9022 41.172 50.0637 40.4338 50.5707 39.377C50.8267 38.8434 50.9161 38.2193 50.7465 37.599C50.5753 36.9731 50.1639 36.436 49.5683 36.0394L48.4597 37.704C48.7101 37.8708 48.7903 38.028 48.8173 38.1266C48.8458 38.2307 48.8398 38.3612 48.7675 38.5119C48.618 38.8235 48.1918 39.172 47.5306 39.172V41.172ZM47.1316 36.9799C47.597 37.1825 48.0412 37.4253 48.4597 37.704L49.5683 36.0394C49.0524 35.6958 48.5044 35.3962 47.9297 35.1461L47.1316 36.9799Z" fill="white"/>
</g>
<defs>
<filter id="filter0_d_414_4755" x="0.833252" y="0" width="80" height="80" filterUnits="userSpaceOnUse" color-interpolation-filters="sRGB">
<feFlood flood-opacity="0" result="BackgroundImageFix"/>
<feColorMatrix in="SourceAlpha" type="matrix" values="0 0 0 0 0 0 0 0 0 0 0 0 0 0 0 0 0 0 127 0" result="hardAlpha"/>
<feOffset dy="8"/>
<feGaussianBlur stdDeviation="8"/>
<feColorMatrix type="matrix" values="0 0 0 0 0.219608 0 0 0 0 0.752941 0 0 0 0 0.992157 0 0 0 0.25 0"/>
<feBlend mode="normal" in2="BackgroundImageFix" result="effect1_dropShadow_414_4755"/>
<feBlend mode="normal" in="SourceGraphic" in2="effect1_dropShadow_414_4755" result="shape"/>
</filter>
</defs>
</svg>
