<svg width="80" height="80" viewBox="0 0 80 80" fill="none" xmlns="http://www.w3.org/2000/svg">
<g filter="url(#filter0_d_414_4780)">
<rect x="16" y="8" width="48" height="48" rx="16" fill="#2CB4F6"/>
<path d="M43.1697 24.533L42.5587 25.3247L43.1697 24.533ZM35.221 39.8418L35.1525 40.8395L35.221 39.8418ZM47.3054 29.7559L46.3057 29.7811L47.3054 29.7559ZM46.8161 28.3119L46.0099 28.9036L46.8161 28.3119ZM44.7793 39.8418L44.7107 38.8442L44.7793 39.8418ZM46.3336 32.0001C46.3336 33.8457 46.2762 35.6462 46.1672 37.3826L48.1633 37.5079C48.275 35.7292 48.3336 33.887 48.3336 32.0001H46.3336ZM35.2896 25.156C36.7769 25.0537 38.2135 25 40.0002 25V23C38.1683 23 36.6859 23.0553 35.1525 23.1607L35.2896 25.156ZM33.6668 32.0001C33.6668 30.1544 33.7241 28.354 33.8331 26.6175L31.837 26.4923C31.7254 28.271 31.6667 30.1132 31.6667 32.0001H33.6668ZM33.8331 37.3826C33.7241 35.6462 33.6668 33.8457 33.6668 32.0001H31.6667C31.6667 33.887 31.7254 35.7292 31.837 37.5079L33.8331 37.3826ZM40.0002 39.0002C38.2135 39.0002 36.7769 38.9464 35.2896 38.8442L35.1525 40.8395C36.6859 40.9449 38.1683 41.0002 40.0002 41.0002V39.0002ZM44.7107 38.8442C43.2235 38.9464 41.7869 39.0002 40.0002 39.0002V41.0002C41.832 41.0002 43.3144 40.9449 44.8479 40.8395L44.7107 38.8442ZM40.0002 25C40.5911 25 41.1433 25.0059 41.6712 25.0174L41.7149 23.0179C41.1713 23.006 40.6045 23 40.0002 23V25ZM46.3057 29.7811C46.3242 30.5125 46.3336 31.2526 46.3336 32.0001H48.3336C48.3336 31.2358 48.324 30.479 48.3051 29.7307L46.3057 29.7811ZM42.5587 25.3247C44.0155 26.449 44.8858 27.3722 46.0099 28.9036L47.6222 27.7202C46.4011 26.0566 45.403 24.9935 43.7806 23.7414L42.5587 25.3247ZM41.6712 25.0174C41.9999 25.0246 42.3108 25.1334 42.5587 25.3247L43.7806 23.7414C43.1823 23.2796 42.4549 23.0341 41.7149 23.0179L41.6712 25.0174ZM31.837 37.5079C31.9492 39.2959 33.369 40.7169 35.1525 40.8395L35.2896 38.8442C34.5033 38.7901 33.8822 38.1654 33.8331 37.3826L31.837 37.5079ZM48.3051 29.7307C48.287 29.0119 48.0538 28.3081 47.6222 27.7202L46.0099 28.9036C46.1937 29.154 46.2976 29.4604 46.3057 29.7811L48.3051 29.7307ZM35.1525 23.1607C33.369 23.2833 31.9492 24.7043 31.837 26.4923L33.8331 26.6175C33.8822 25.8348 34.5033 25.2101 35.2896 25.156L35.1525 23.1607ZM46.1672 37.3826C46.1181 38.1654 45.497 38.7901 44.7107 38.8442L44.8479 40.8395C46.6313 40.7169 48.0511 39.2959 48.1633 37.5079L46.1672 37.3826Z" fill="white"/>
<path d="M37.4583 31.021C36.906 31.021 36.4582 31.4687 36.4582 32.021C36.4582 32.5733 36.906 33.021 37.4583 33.021V31.021ZM42.5416 33.021C43.0939 33.021 43.5416 32.5733 43.5416 32.021C43.5416 31.4687 43.0939 31.021 42.5416 31.021V33.021ZM37.4583 33.021H42.5416V31.021H37.4583V33.021Z" fill="white"/>
<path d="M37.4583 34.8959C36.906 34.8959 36.4582 35.3436 36.4582 35.8959C36.4582 36.4482 36.906 36.8959 37.4583 36.8959V34.8959ZM42.5258 36.8959C43.0781 36.8959 43.5258 36.4482 43.5258 35.8959C43.5258 35.3436 43.0781 34.8959 42.5258 34.8959V36.8959ZM37.4583 27C36.906 27 36.4582 27.4477 36.4582 28C36.4582 28.5523 36.906 29 37.4583 29V27ZM40.5258 29C41.0781 29 41.5258 28.5523 41.5258 28C41.5258 27.4477 41.0781 27 40.5258 27V29ZM37.4583 36.8959H42.5258V34.8959H37.4583V36.8959ZM37.4583 29H40.5258V27H37.4583V29Z" fill="white"/>
</g>
<defs>
<filter id="filter0_d_414_4780" x="0" y="0" width="80" height="80" filterUnits="userSpaceOnUse" color-interpolation-filters="sRGB">
<feFlood flood-opacity="0" result="BackgroundImageFix"/>
<feColorMatrix in="SourceAlpha" type="matrix" values="0 0 0 0 0 0 0 0 0 0 0 0 0 0 0 0 0 0 127 0" result="hardAlpha"/>
<feOffset dy="8"/>
<feGaussianBlur stdDeviation="8"/>
<feColorMatrix type="matrix" values="0 0 0 0 0.219608 0 0 0 0 0.752941 0 0 0 0 0.992157 0 0 0 0.25 0"/>
<feBlend mode="normal" in2="BackgroundImageFix" result="effect1_dropShadow_414_4780"/>
<feBlend mode="normal" in="SourceGraphic" in2="effect1_dropShadow_414_4780" result="shape"/>
</filter>
</defs>
</svg>
