<svg width="81" height="80" viewBox="0 0 81 80" fill="none" xmlns="http://www.w3.org/2000/svg">
<g filter="url(#filter0_d_414_4318)">
<rect x="16.25" y="8" width="48" height="48" rx="16" fill="#2CB4F6"/>
<path d="M43.7076 23.8543L43.0967 24.6459L43.7076 23.8543ZM35.0367 40.5543L34.9681 41.552L35.0367 40.5543ZM45.4635 40.5543L45.3949 39.5567L45.4635 40.5543ZM47.25 31.9999C47.25 34.0152 47.1874 35.9812 47.0683 37.8773L49.0644 38.0026C49.1861 36.0642 49.25 34.0564 49.25 31.9999H47.25ZM35.1053 24.4432C36.7298 24.3315 38.299 24.2728 40.2501 24.2728V22.2728C38.2538 22.2728 36.6388 22.333 34.9681 22.4479L35.1053 24.4432ZM33.2502 31.9999C33.2502 29.9847 33.3129 28.0187 33.4319 26.1226L31.4358 25.9973C31.3141 27.9357 31.2502 29.9435 31.2502 31.9999H33.2502ZM33.4319 37.8773C33.3129 35.9812 33.2502 34.0152 33.2502 31.9999H31.2502C31.2502 34.0564 31.3141 36.0642 31.4358 38.0026L33.4319 37.8773ZM40.2501 39.7271C38.299 39.7271 36.7298 39.6684 35.1053 39.5567L34.9681 41.552C36.6388 41.6669 38.2538 41.7271 40.2501 41.7271V39.7271ZM45.3949 39.5567C43.7705 39.6684 42.2012 39.7271 40.2501 39.7271V41.7271C42.2464 41.7271 43.8614 41.6669 45.5321 41.552L45.3949 39.5567ZM40.2501 24.2728C40.8954 24.2728 41.4985 24.2792 42.075 24.2918L42.1187 22.2923C41.5264 22.2794 40.9088 22.2728 40.2501 22.2728V24.2728ZM47.2196 29.577C47.2397 30.3757 47.25 31.1838 47.25 31.9999H49.25C49.25 31.167 49.2395 30.3421 49.2189 29.5266L47.2196 29.577ZM43.0967 24.6459C44.6934 25.8783 45.6486 26.8917 46.8793 28.5683L48.4916 27.3849C47.1639 25.5761 46.0809 24.4227 44.3186 23.0627L43.0967 24.6459ZM42.075 24.2918C42.4522 24.3001 42.8104 24.425 43.0967 24.6459L44.3186 23.0627C43.6819 22.5712 42.9073 22.3096 42.1187 22.2923L42.075 24.2918ZM31.4358 38.0026C31.5554 39.9074 33.0679 41.4213 34.9681 41.552L35.1053 39.5567C34.2022 39.4946 33.4883 38.7769 33.4319 37.8773L31.4358 38.0026ZM49.2189 29.5266C49.1996 28.7606 48.9511 28.0109 48.4916 27.3849L46.8793 28.5683C47.0911 28.8568 47.2103 29.209 47.2196 29.577L49.2189 29.5266ZM34.9681 22.4479C33.0679 22.5786 31.5554 24.0925 31.4358 25.9973L33.4319 26.1226C33.4883 25.223 34.2022 24.5053 35.1053 24.4432L34.9681 22.4479ZM47.0683 37.8773C47.0119 38.7769 46.298 39.4946 45.3949 39.5567L45.5321 41.552C47.4323 41.4213 48.9449 39.9074 49.0644 38.0026L47.0683 37.8773Z" fill="white"/>
<path d="M37.4773 31.0227C36.925 31.0227 36.4773 31.4704 36.4773 32.0227C36.4773 32.575 36.925 33.0227 37.4773 33.0227V31.0227ZM43.0227 33.0227C43.5749 33.0227 44.0227 32.575 44.0227 32.0227C44.0227 31.4704 43.5749 31.0227 43.0227 31.0227V33.0227ZM37.4773 33.0227H43.0227V31.0227H37.4773V33.0227Z" fill="white"/>
<path d="M37.4773 35.2499C36.925 35.2499 36.4773 35.6976 36.4773 36.2499C36.4773 36.8022 36.925 37.2499 37.4773 37.2499V35.2499ZM43.0054 37.2499C43.5577 37.2499 44.0054 36.8022 44.0054 36.2499C44.0054 35.6976 43.5577 35.2499 43.0054 35.2499V37.2499ZM37.4773 26.6365C36.925 26.6365 36.4773 27.0842 36.4773 27.6365C36.4773 28.1888 36.925 28.6365 37.4773 28.6365V26.6365ZM40.8236 28.6365C41.3759 28.6365 41.8236 28.1888 41.8236 27.6365C41.8236 27.0842 41.3759 26.6365 40.8236 26.6365V28.6365ZM37.4773 37.2499H43.0054V35.2499H37.4773V37.2499ZM37.4773 28.6365H40.8236V26.6365H37.4773V28.6365Z" fill="white"/>
</g>
<defs>
<filter id="filter0_d_414_4318" x="0.25" y="0" width="80" height="80" filterUnits="userSpaceOnUse" color-interpolation-filters="sRGB">
<feFlood flood-opacity="0" result="BackgroundImageFix"/>
<feColorMatrix in="SourceAlpha" type="matrix" values="0 0 0 0 0 0 0 0 0 0 0 0 0 0 0 0 0 0 127 0" result="hardAlpha"/>
<feOffset dy="8"/>
<feGaussianBlur stdDeviation="8"/>
<feColorMatrix type="matrix" values="0 0 0 0 0.219608 0 0 0 0 0.752941 0 0 0 0 0.992157 0 0 0 0.25 0"/>
<feBlend mode="normal" in2="BackgroundImageFix" result="effect1_dropShadow_414_4318"/>
<feBlend mode="normal" in="SourceGraphic" in2="effect1_dropShadow_414_4318" result="shape"/>
</filter>
</defs>
</svg>
