<svg width="375" height="132" viewBox="0 0 375 132" fill="none" xmlns="http://www.w3.org/2000/svg">
<g filter="url(#filter0_d_414_4649)">
<rect width="374" height="120" transform="translate(1 12)" fill="white"/>
<g filter="url(#filter1_d_414_4649)">
<rect x="152" y="36" width="72" height="72" rx="36" fill="#2CB4F6"/>
<path d="M188 82.6667V85.3334" stroke="white" stroke-width="2.66667" stroke-linecap="round" stroke-linejoin="round"/>
<path d="M188.185 61.3333C190.918 61.3333 193.392 63.1654 193.45 65.7949C193.55 70.2573 194.479 77.3333 188.25 77.3333C182.021 77.3333 182.885 70.2573 182.984 65.7949C183.043 63.1654 185.452 61.3333 188.185 61.3333Z" stroke="white" stroke-width="2.66667"/>
<path d="M177.556 74.6667C177.906 79.1376 181.737 82.6667 188.152 82.6667C194.172 82.6667 198.163 79.1277 198.889 74.6667" stroke="white" stroke-width="2.66667" stroke-linecap="round" stroke-linejoin="round"/>
</g>
</g>
<defs>
<filter id="filter0_d_414_4649" x="-15" y="0" width="406" height="152" filterUnits="userSpaceOnUse" color-interpolation-filters="sRGB">
<feFlood flood-opacity="0" result="BackgroundImageFix"/>
<feColorMatrix in="SourceAlpha" type="matrix" values="0 0 0 0 0 0 0 0 0 0 0 0 0 0 0 0 0 0 127 0" result="hardAlpha"/>
<feOffset dy="4"/>
<feGaussianBlur stdDeviation="8"/>
<feComposite in2="hardAlpha" operator="out"/>
<feColorMatrix type="matrix" values="0 0 0 0 0.270588 0 0 0 0 0.301961 0 0 0 0 0.380392 0 0 0 0.12 0"/>
<feBlend mode="normal" in2="BackgroundImageFix" result="effect1_dropShadow_414_4649"/>
<feBlend mode="normal" in="SourceGraphic" in2="effect1_dropShadow_414_4649" result="shape"/>
</filter>
<filter id="filter1_d_414_4649" x="136" y="28" width="104" height="104" filterUnits="userSpaceOnUse" color-interpolation-filters="sRGB">
<feFlood flood-opacity="0" result="BackgroundImageFix"/>
<feColorMatrix in="SourceAlpha" type="matrix" values="0 0 0 0 0 0 0 0 0 0 0 0 0 0 0 0 0 0 127 0" result="hardAlpha"/>
<feOffset dy="8"/>
<feGaussianBlur stdDeviation="8"/>
<feColorMatrix type="matrix" values="0 0 0 0 0.219608 0 0 0 0 0.752941 0 0 0 0 0.992157 0 0 0 0.25 0"/>
<feBlend mode="normal" in2="BackgroundImageFix" result="effect1_dropShadow_414_4649"/>
<feBlend mode="normal" in="SourceGraphic" in2="effect1_dropShadow_414_4649" result="shape"/>
</filter>
</defs>
</svg>
