<svg width="88" height="82" viewBox="0 0 88 82" fill="none" xmlns="http://www.w3.org/2000/svg">
<g filter="url(#filter0_d_414_3154)">
<rect x="16" y="8" width="56" height="50" rx="16" fill="#2CB4F6"/>
<path d="M38.756 31.9934C38.8013 32.3966 39.1228 32.7179 39.5258 32.7646C40.0888 32.8298 40.6724 32.8989 41.2706 32.8989C41.8687 32.8989 42.4523 32.8298 43.0154 32.7646C43.4184 32.7179 43.7399 32.3966 43.7851 31.9934C43.8481 31.4329 43.9131 30.8518 43.9131 30.2564C43.9131 29.661 43.8481 29.08 43.7851 28.5194C43.7399 28.1162 43.4184 27.795 43.0154 27.7483C42.4523 27.683 41.8687 27.6139 41.2706 27.6139C40.6724 27.6139 40.0888 27.683 39.5258 27.7483C39.1228 27.795 38.8013 28.1162 38.756 28.5194C38.6931 29.08 38.6281 29.661 38.6281 30.2564C38.6281 30.8518 38.6931 31.4329 38.756 31.9934Z" stroke="white" stroke-width="2"/>
<path d="M48.3394 24.2759C49.2133 24.37 50.0744 24.4752 50.9207 24.5693C51.7271 24.659 52.3675 25.2988 52.4553 26.1054C52.5471 26.9485 52.6482 27.8063 52.738 28.6768" stroke="white" stroke-width="2" stroke-linecap="round"/>
<path d="M48.3394 41.7209C49.2133 41.6268 50.0744 41.5216 50.9207 41.4275C51.7271 41.3379 52.3675 40.698 52.4553 39.8914C52.5471 39.0483 52.6482 38.1905 52.738 37.32" stroke="white" stroke-width="2" stroke-linecap="round"/>
<path d="M39.6801 24.2759C38.8061 24.37 37.945 24.4752 37.0987 24.5693C36.2923 24.659 35.6519 25.2988 35.5641 26.1054C35.4723 26.9485 35.3712 27.8063 35.2814 28.6768" stroke="white" stroke-width="2" stroke-linecap="round"/>
<path d="M39.6801 41.7209C38.8061 41.6268 37.945 41.5216 37.0987 41.4275C36.2923 41.3379 35.6519 40.698 35.5641 39.8914C35.4723 39.0483 35.3712 38.1905 35.2814 37.32" stroke="white" stroke-width="2" stroke-linecap="round"/>
<path d="M39.1106 36.1857L39.1106 38.3861L41.2706 38.3861" stroke="white" stroke-width="2" stroke-linecap="round" stroke-linejoin="round"/>
<path d="M49.3325 38.3861L49.3325 36.1856L47.1725 36.1856" stroke="white" stroke-width="2" stroke-linecap="round" stroke-linejoin="round"/>
<path d="M49.3718 32.9659L47.2118 32.9659" stroke="white" stroke-width="2" stroke-linecap="round" stroke-linejoin="round"/>
<path d="M43.9131 38.366L43.9131 36.206" stroke="white" stroke-width="2" stroke-linecap="round" stroke-linejoin="round"/>
<path d="M49.3325 30.2563L49.3325 28.0559L47.1725 28.0559" stroke="white" stroke-width="2" stroke-linecap="round" stroke-linejoin="round"/>
</g>
<defs>
<filter id="filter0_d_414_3154" x="0" y="0" width="88" height="82" filterUnits="userSpaceOnUse" color-interpolation-filters="sRGB">
<feFlood flood-opacity="0" result="BackgroundImageFix"/>
<feColorMatrix in="SourceAlpha" type="matrix" values="0 0 0 0 0 0 0 0 0 0 0 0 0 0 0 0 0 0 127 0" result="hardAlpha"/>
<feOffset dy="8"/>
<feGaussianBlur stdDeviation="8"/>
<feColorMatrix type="matrix" values="0 0 0 0 0.219608 0 0 0 0 0.752941 0 0 0 0 0.992157 0 0 0 0.25 0"/>
<feBlend mode="normal" in2="BackgroundImageFix" result="effect1_dropShadow_414_3154"/>
<feBlend mode="normal" in="SourceGraphic" in2="effect1_dropShadow_414_3154" result="shape"/>
</filter>
</defs>
</svg>
