<svg width="81" height="80" viewBox="0 0 81 80" fill="none" xmlns="http://www.w3.org/2000/svg">
<g filter="url(#filter0_d_414_4773)">
<rect x="16.1665" y="8" width="48" height="48" rx="16" fill="#2CB4F6"/>
<path d="M33.6812 24.3042L33.6109 23.3066L33.6812 24.3042ZM32.492 25.459L31.4986 25.3449L32.492 25.459ZM32.3655 36.8711L31.3726 36.9897L32.3655 36.8711ZM34.842 39.2388L34.9503 38.2446L34.9503 38.2446L34.842 39.2388ZM45.5061 39.2289L45.3978 38.2347L45.3978 38.2347L45.5061 39.2289ZM47.8917 36.8711L48.8847 36.9897V36.9897L47.8917 36.8711ZM39.5505 25.7991L38.6128 26.1464L39.5505 25.7991ZM45.8163 26.8388L45.7338 27.8354L45.8163 26.8388ZM39.2913 25.0992L38.3536 25.4465L39.2913 25.0992ZM38.1955 23.2622C36.3002 23.1759 35.1408 23.1989 33.6109 23.3066L33.7514 25.3017C35.2025 25.1995 36.2846 25.1773 38.1046 25.2601L38.1955 23.2622ZM33.6109 23.3066C32.4899 23.3856 31.6227 24.2645 31.4986 25.3449L33.4855 25.5732C33.5039 25.4132 33.6269 25.3105 33.7514 25.3017L33.6109 23.3066ZM45.6143 40.223C47.3166 40.0377 48.6813 38.6933 48.8847 36.9897L46.8988 36.7526C46.8061 37.5285 46.1779 38.1498 45.3978 38.2347L45.6143 40.223ZM45.8988 25.8422C44.1225 25.6951 42.8776 25.6866 40.7542 25.6416L40.7119 27.6412C42.8616 27.6867 44.0334 27.6946 45.7338 27.8354L45.8988 25.8422ZM40.4883 25.4519L40.2291 24.752L38.3536 25.4465L38.6128 26.1464L40.4883 25.4519ZM31.3726 36.9897C31.5875 38.7899 33.0545 40.05 34.7338 40.2329L34.9503 38.2446C34.0997 38.152 33.4519 37.5351 33.3584 36.7526L31.3726 36.9897ZM34.7338 40.2329C38.3795 40.6299 41.9726 40.6195 45.6143 40.223L45.3978 38.2347C41.8963 38.616 38.4483 38.6255 34.9503 38.2446L34.7338 40.2329ZM48.8847 36.9897C49.1733 34.5728 49.2488 32.1022 49.0709 29.0921L47.0743 29.2102C47.2461 32.1145 47.1719 34.4656 46.8988 36.7526L48.8847 36.9897ZM31.4986 25.3449C31.0568 29.1899 30.906 33.0826 31.3726 36.9897L33.3584 36.7526C32.9162 33.0489 33.0548 29.3216 33.4855 25.5732L31.4986 25.3449ZM40.7542 25.6416C40.6359 25.6391 40.5298 25.564 40.4883 25.4519L38.6128 26.1464C38.9391 27.0275 39.7713 27.6213 40.7119 27.6412L40.7542 25.6416ZM45.7338 27.8354C46.4596 27.8955 47.0312 28.4806 47.0743 29.2102L49.0709 29.0921C48.9691 27.3713 47.6192 25.9846 45.8988 25.8422L45.7338 27.8354ZM38.1046 25.2601C38.2116 25.265 38.3122 25.3348 38.3536 25.4465L40.2291 24.752C39.9129 23.8981 39.1171 23.3041 38.1955 23.2622L38.1046 25.2601Z" fill="white"/>
</g>
<defs>
<filter id="filter0_d_414_4773" x="0.166504" y="0" width="80" height="80" filterUnits="userSpaceOnUse" color-interpolation-filters="sRGB">
<feFlood flood-opacity="0" result="BackgroundImageFix"/>
<feColorMatrix in="SourceAlpha" type="matrix" values="0 0 0 0 0 0 0 0 0 0 0 0 0 0 0 0 0 0 127 0" result="hardAlpha"/>
<feOffset dy="8"/>
<feGaussianBlur stdDeviation="8"/>
<feColorMatrix type="matrix" values="0 0 0 0 0.219608 0 0 0 0 0.752941 0 0 0 0 0.992157 0 0 0 0.25 0"/>
<feBlend mode="normal" in2="BackgroundImageFix" result="effect1_dropShadow_414_4773"/>
<feBlend mode="normal" in="SourceGraphic" in2="effect1_dropShadow_414_4773" result="shape"/>
</filter>
</defs>
</svg>
