<svg width="375" height="132" viewBox="0 0 375 132" fill="none" xmlns="http://www.w3.org/2000/svg">
<g filter="url(#filter0_d_414_4338)">
<rect width="374" height="120" transform="translate(1 12)" fill="white"/>
<g filter="url(#filter1_d_414_4338)">
<rect x="152" y="36" width="72" height="72" rx="36" fill="#2CB4F6"/>
<path d="M188 82.6666V85.3333" stroke="white" stroke-width="2.66667" stroke-linecap="round" stroke-linejoin="round"/>
<path d="M188.185 61.3334C190.917 61.3334 193.391 63.1655 193.45 65.795C193.55 70.2574 194.478 77.3334 188.25 77.3334C182.021 77.3334 182.885 70.2574 182.984 65.795C183.043 63.1655 185.452 61.3334 188.185 61.3334Z" stroke="white" stroke-width="2.66667"/>
<path d="M177.556 74.6666C177.906 79.1375 181.737 82.6666 188.152 82.6666C194.172 82.6666 198.163 79.1276 198.889 74.6666" stroke="white" stroke-width="2.66667" stroke-linecap="round" stroke-linejoin="round"/>
</g>
</g>
<defs>
<filter id="filter0_d_414_4338" x="-15" y="0" width="406" height="152" filterUnits="userSpaceOnUse" color-interpolation-filters="sRGB">
<feFlood flood-opacity="0" result="BackgroundImageFix"/>
<feColorMatrix in="SourceAlpha" type="matrix" values="0 0 0 0 0 0 0 0 0 0 0 0 0 0 0 0 0 0 127 0" result="hardAlpha"/>
<feOffset dy="4"/>
<feGaussianBlur stdDeviation="8"/>
<feComposite in2="hardAlpha" operator="out"/>
<feColorMatrix type="matrix" values="0 0 0 0 0.270588 0 0 0 0 0.301961 0 0 0 0 0.380392 0 0 0 0.12 0"/>
<feBlend mode="normal" in2="BackgroundImageFix" result="effect1_dropShadow_414_4338"/>
<feBlend mode="normal" in="SourceGraphic" in2="effect1_dropShadow_414_4338" result="shape"/>
</filter>
<filter id="filter1_d_414_4338" x="136" y="28" width="104" height="104" filterUnits="userSpaceOnUse" color-interpolation-filters="sRGB">
<feFlood flood-opacity="0" result="BackgroundImageFix"/>
<feColorMatrix in="SourceAlpha" type="matrix" values="0 0 0 0 0 0 0 0 0 0 0 0 0 0 0 0 0 0 127 0" result="hardAlpha"/>
<feOffset dy="8"/>
<feGaussianBlur stdDeviation="8"/>
<feColorMatrix type="matrix" values="0 0 0 0 0.219608 0 0 0 0 0.752941 0 0 0 0 0.992157 0 0 0 0.25 0"/>
<feBlend mode="normal" in2="BackgroundImageFix" result="effect1_dropShadow_414_4338"/>
<feBlend mode="normal" in="SourceGraphic" in2="effect1_dropShadow_414_4338" result="shape"/>
</filter>
</defs>
</svg>
