<svg width="29" height="22" viewBox="0 0 29 22" fill="none" xmlns="http://www.w3.org/2000/svg">
<path d="M2.03108 21.7025H6.47802V10.9028L0.125244 6.13818V19.7967C0.125244 20.8512 0.979693 21.7025 2.03108 21.7025Z" fill="#4285F4"/>
<path d="M21.7246 21.7025H26.1716C27.2261 21.7025 28.0774 20.848 28.0774 19.7967V6.13818L21.7246 10.9028" fill="#34A853"/>
<path d="M21.7246 2.64427V10.9029L28.0774 6.1383V3.59719C28.0774 1.24031 25.387 -0.103304 23.5034 1.31019" fill="#FBBC04"/>
<path d="M6.47803 10.9028V2.64417L14.1014 8.36167L21.7247 2.64417V10.9028L14.1014 16.6203" fill="#EA4335"/>
<path d="M0.125244 3.59719V6.1383L6.47802 10.9029V2.64427L4.69925 1.31019C2.81247 -0.103304 0.125244 1.24031 0.125244 3.59719Z" fill="#C5221F"/>
</svg>
