<svg width="27" height="27" viewBox="0 0 27 27" fill="none" xmlns="http://www.w3.org/2000/svg">
<path d="M15.3326 7.63694C15.3326 9.65995 14.5253 11.6001 13.0885 13.0306C11.6517 14.4611 9.70291 15.2647 7.67092 15.2647C5.63892 15.2647 3.69015 14.4611 2.25332 13.0306C0.816483 11.6001 0.00927734 9.65995 0.00927734 7.63694C0.00927734 5.61393 0.816483 3.67377 2.25332 2.24328C3.69015 0.812795 5.63892 0.00915527 7.67092 0.00915527C9.70291 0.00915527 11.6517 0.812795 13.0885 2.24328C14.5253 3.67377 15.3326 5.61393 15.3326 7.63694Z" fill="white"/>
<path d="M26.0102 18.5911C26.0102 19.5931 25.8119 20.5854 25.4268 21.5111C25.0416 22.4369 24.477 23.2781 23.7654 23.9866C23.0537 24.6952 22.2088 25.2572 21.2789 25.6407C20.349 26.0241 19.3524 26.2215 18.3459 26.2215C16.3132 26.2215 14.3638 25.4176 12.9265 23.9866C11.4891 22.5556 10.6816 20.6148 10.6816 18.5911C10.6816 16.5674 11.4891 14.6266 12.9265 13.1956C14.3638 11.7646 16.3132 10.9607 18.3459 10.9607C19.3524 10.9607 20.349 11.1581 21.2789 11.5415C22.2088 11.925 23.0537 12.487 23.7654 13.1956C24.477 13.9041 25.0416 14.7453 25.4268 15.6711C25.8119 16.5968 26.0102 17.5891 26.0102 18.5911Z" fill="white"/>
<path opacity="0.05" fill-rule="evenodd" clip-rule="evenodd" d="M0.0373535 8.28962C0.156359 9.73083 0.681761 11.1089 1.55268 12.264C2.4236 13.4192 3.60438 14.3042 4.9582 14.8165C6.31203 15.3289 7.78347 15.4475 9.20203 15.1587C10.6206 14.8699 11.9282 14.1855 12.9733 13.1848C14.0184 12.1842 14.7583 10.9081 15.1072 9.50466C15.4561 8.10117 15.3997 6.62766 14.9445 5.25487C14.4894 3.88208 13.6542 2.66622 12.5356 1.74816C11.417 0.830106 10.0609 0.247443 8.62444 0.067688C6.67396 0.719423 4.89228 1.79477 3.40751 3.2164C1.92274 4.63803 0.771768 6.37063 0.0373535 8.28962Z" fill="white"/>
<path opacity="0.05" fill-rule="evenodd" clip-rule="evenodd" d="M25.99 18.0433C25.8899 16.5845 25.3737 15.1848 24.5023 14.0099C23.631 12.835 22.441 11.9339 21.0731 11.4133C19.7052 10.8927 18.2166 10.7743 16.7835 11.0722C15.3503 11.37 14.0326 12.0717 12.9861 13.0941C11.9396 14.1165 11.2082 15.4169 10.8783 16.8415C10.5484 18.2661 10.6339 19.7552 11.1246 21.1328C11.6154 22.5104 12.4908 23.7188 13.6475 24.615C14.8041 25.5112 16.1935 26.0578 17.6513 26.19C19.5485 25.5153 21.2766 24.4374 22.7162 23.0307C24.1558 21.624 25.2728 19.9221 25.99 18.0424V18.0433Z" fill="white"/>
<path opacity="0.1" fill-rule="evenodd" clip-rule="evenodd" d="M0.395996 10.0336C0.798421 11.2633 1.5065 12.371 2.454 13.253C3.4015 14.135 4.55748 14.7626 5.81381 15.077C7.07015 15.3915 8.3858 15.3825 9.63771 15.0509C10.8896 14.7194 12.0369 14.0761 12.9723 13.1812C13.9076 12.2863 14.6005 11.1691 14.986 9.934C15.3716 8.69893 15.4373 7.38635 15.1769 6.11903C14.9165 4.85171 14.3387 3.67104 13.4973 2.68747C12.6559 1.70389 11.5786 0.949526 10.366 0.494934C7.97644 0.992213 5.7748 2.15009 4.01204 3.83658C2.24929 5.52307 0.996333 7.67033 0.395996 10.0336Z" fill="white"/>
<path opacity="0.1" fill-rule="evenodd" clip-rule="evenodd" d="M25.642 16.2503C25.2455 15.0061 24.5368 13.8839 23.5834 12.9905C22.6301 12.0971 21.4637 11.4623 20.1953 11.1465C18.9269 10.8306 17.5987 10.8442 16.3371 11.186C15.0754 11.5277 13.9223 12.1863 12.9875 13.099C12.0526 14.0117 11.3671 15.1481 10.9962 16.4002C10.6253 17.6523 10.5814 18.9784 10.8685 20.2523C11.1556 21.5262 11.7643 22.7055 12.6367 23.678C13.509 24.6504 14.6159 25.3838 15.8522 25.8082C18.2112 25.2794 20.3763 24.1053 22.1052 22.4173C23.8342 20.7293 25.0588 18.594 25.642 16.2503Z" fill="white"/>
<path opacity="0.1" fill-rule="evenodd" clip-rule="evenodd" d="M0.67749 10.7571C1.17599 11.8791 1.93755 12.8647 2.89782 13.6308C3.85809 14.3968 4.98884 14.9207 6.19453 15.1581C7.40023 15.3956 8.64543 15.3397 9.82492 14.9951C11.0044 14.6505 12.0835 14.0274 12.9711 13.1783C13.8587 12.3293 14.5286 11.2794 14.9243 10.1172C15.32 8.95504 15.4298 7.71481 15.2445 6.50131C15.0591 5.2878 14.5841 4.1367 13.8595 3.14525C13.1349 2.1538 12.182 1.35115 11.0814 0.805115C8.53596 1.20088 6.17347 2.36738 4.31294 4.1471C2.4524 5.92681 1.18346 8.234 0.67749 10.7571Z" fill="white"/>
<path opacity="0.1" fill-rule="evenodd" clip-rule="evenodd" d="M25.3594 15.512C24.8635 14.377 24.0991 13.3792 23.132 12.6043C22.1648 11.8295 21.0238 11.3007 19.807 11.0635C18.5901 10.8263 17.3338 10.8877 16.146 11.2425C14.9581 11.5972 13.8742 12.2347 12.9875 13.1002C12.1007 13.9656 11.4375 15.0332 11.0548 16.2112C10.6722 17.3891 10.5815 18.6423 10.7907 19.863C10.9998 21.0836 11.5025 22.2353 12.2555 23.2192C13.0086 24.203 13.9894 24.9895 15.1139 25.5111C17.637 25.0829 19.9694 23.8963 21.7999 22.1098C23.6305 20.3233 24.8722 18.0216 25.3594 15.512Z" fill="white"/>
<path d="M25.1461 13.1721C25.1461 14.7587 24.8322 16.3297 24.2224 17.7954C23.6125 19.2612 22.7187 20.593 21.5919 21.7149C20.465 22.8367 19.1273 23.7266 17.655 24.3338C16.1827 24.9409 14.6047 25.2534 13.0112 25.2534C11.4176 25.2534 9.8396 24.9409 8.36732 24.3338C6.89504 23.7266 5.55729 22.8367 4.43046 21.7149C3.30363 20.593 2.40978 19.2612 1.79994 17.7954C1.1901 16.3297 0.876221 14.7587 0.876221 13.1721C0.876221 11.5856 1.1901 10.0146 1.79994 8.54884C2.40978 7.08308 3.30363 5.75125 4.43046 4.6294C5.55729 3.50755 6.89504 2.61765 8.36732 2.01051C9.8396 1.40337 11.4176 1.09088 13.0112 1.09088C14.6047 1.09088 16.1827 1.40337 17.655 2.01051C19.1273 2.61765 20.465 3.50755 21.5919 4.6294C22.7187 5.75125 23.6125 7.08308 24.2224 8.54884C24.8322 10.0146 25.1461 11.5856 25.1461 13.1721Z" fill="white"/>
<path fill-rule="evenodd" clip-rule="evenodd" d="M9.59876 12.7527C9.10838 12.4303 8.69916 11.9991 8.40303 11.4928C8.11713 10.9578 7.97602 10.3575 7.99366 9.75138C7.97199 8.98212 8.23481 8.23184 8.73192 7.64391C9.24854 7.05349 9.91252 6.61033 10.6563 6.3595C11.4652 6.07404 12.3176 5.93067 13.1755 5.93574C13.7368 5.93044 14.2975 5.97342 14.8514 6.06418C15.2479 6.12534 15.6373 6.22573 16.0139 6.36387C16.3597 6.48079 16.6719 6.67989 16.9236 6.94404C17.1091 7.16137 17.2089 7.43876 17.2044 7.72429C17.211 7.87263 17.1883 8.02082 17.1376 8.16039C17.0869 8.29997 17.0091 8.42819 16.9088 8.53775C16.8138 8.6387 16.6986 8.71845 16.5706 8.77176C16.4426 8.82507 16.3048 8.85073 16.1661 8.84705C15.9754 8.84548 15.7872 8.80318 15.6142 8.72298C15.1877 8.53232 14.7484 8.37174 14.2995 8.24242C13.8862 8.13358 13.4602 8.08068 13.0329 8.08515C12.4759 8.06468 11.9249 8.20547 11.4462 8.49057C11.2441 8.61318 11.0788 8.78774 10.9674 8.996C10.856 9.20426 10.8026 9.43858 10.8129 9.67449C10.8099 9.98421 10.9279 10.2829 11.1418 10.5072C11.3959 10.7706 11.6962 10.9853 12.0279 11.1406C12.3993 11.3247 12.9533 11.5688 13.6898 11.8728C13.7714 11.8986 13.8509 11.9305 13.9277 11.9681C14.6465 12.2521 15.3356 12.6059 15.9851 13.0244C16.498 13.3585 16.9306 13.8019 17.2517 14.3228C17.5678 14.8703 17.7261 15.4944 17.7091 16.1262C17.7357 16.8998 17.5137 17.6615 17.0758 18.3001C16.6299 18.9047 16.013 19.3621 15.3045 19.6133C14.4507 19.9181 13.5484 20.0649 12.6419 20.0467C11.3962 20.0903 10.1564 19.8559 9.0127 19.3608C8.72032 19.2307 8.46396 19.0316 8.2657 18.7806C8.10109 18.5506 8.01575 18.2734 8.02253 17.9908C8.01436 17.8417 8.03867 17.6926 8.09379 17.5538C8.14891 17.4151 8.23353 17.2899 8.3418 17.1869C8.56878 16.9884 8.86345 16.8845 9.16491 16.8969C9.50079 16.9014 9.8307 16.9862 10.1271 17.1441C10.4956 17.3282 10.7863 17.4662 10.9992 17.5583C11.2423 17.6599 11.494 17.7395 11.7514 17.7959C12.0688 17.8655 12.3931 17.8989 12.718 17.8955C13.2926 17.9365 13.8644 17.7843 14.3423 17.463C14.5213 17.3232 14.6643 17.1428 14.7595 16.9367C14.8547 16.7307 14.8994 16.505 14.8899 16.2782C14.8905 15.9567 14.7678 15.6472 14.547 15.4132C14.2553 15.1124 13.9138 14.8641 13.5376 14.6793C13.0927 14.4451 12.467 14.1597 11.6605 13.823C10.9392 13.5359 10.2485 13.1773 9.59876 12.7527Z" fill="#00B7F0"/>
</svg>
