<svg width="32" height="32" viewBox="0 0 32 32" fill="none" xmlns="http://www.w3.org/2000/svg">
<path d="M19.9661 4.97845L19.1769 6.00099L19.9661 4.97845ZM8.76613 26.5493L8.67753 27.838L8.76613 26.5493ZM25.1042 10.3031L26.1454 9.53877L25.1042 10.3031ZM25.5962 23.1725L26.8853 23.2534L25.5962 23.1725ZM24.5416 15.4999C24.5416 18.103 24.4608 20.6423 24.307 23.0915L26.8853 23.2534C27.0424 20.7495 27.125 18.1562 27.125 15.4999H24.5416ZM8.85473 5.73912C10.953 5.59485 12.98 5.51905 15.5002 5.51905V2.93572C12.9216 2.93572 10.8356 3.0135 8.67753 3.16187L8.85473 5.73912ZM6.45866 15.4999C6.45866 12.8969 6.53954 10.3575 6.69326 7.90829L4.115 7.74647C3.95785 10.2503 3.87533 12.8436 3.87533 15.4999H6.45866ZM6.69326 23.0915C6.53954 20.6423 6.45866 18.103 6.45866 15.4999H3.87533C3.87533 18.1562 3.95785 20.7495 4.115 23.2534L6.69326 23.0915ZM15.5002 25.4808C12.98 25.4808 10.953 25.405 8.85473 25.2607L8.67753 27.838C10.8356 27.9863 12.9216 28.0641 15.5002 28.0641V25.4808ZM22.1456 25.2607C20.0473 25.405 18.0203 25.4808 15.5002 25.4808V28.0641C18.0787 28.0641 20.1647 27.9863 22.3228 27.838L22.1456 25.2607ZM15.5002 5.51905C16.3337 5.51905 17.1126 5.52735 17.8574 5.54362L17.9138 2.9609C17.1487 2.94419 16.3509 2.93572 15.5002 2.93572V5.51905ZM24.5024 12.3703C24.5284 13.4019 24.5416 14.4457 24.5416 15.4999H27.125C27.125 14.4241 27.1114 13.3586 27.0849 12.3052L24.5024 12.3703ZM19.1769 6.00099C21.2394 7.59274 22.4732 8.90175 24.0629 11.0674L26.1454 9.53877C24.4305 7.2025 23.0316 5.7127 20.7553 3.95591L19.1769 6.00099ZM17.8574 5.54362C18.3445 5.55427 18.8072 5.71559 19.1769 6.00099L20.7553 3.95591C19.9328 3.32112 18.9323 2.98316 17.9138 2.9609L17.8574 5.54362ZM4.115 23.2534C4.26943 25.7137 6.2231 27.6692 8.67753 27.838L8.85473 25.2607C7.68827 25.1805 6.7662 24.2535 6.69326 23.0915L4.115 23.2534ZM27.0849 12.3052C27.06 11.3158 26.7389 10.3473 26.1454 9.53877L24.0629 11.0674C24.3364 11.44 24.4904 11.895 24.5024 12.3703L27.0849 12.3052ZM8.67753 3.16187C6.2231 3.33062 4.26943 5.28613 4.115 7.74647L6.69326 7.90829C6.76619 6.74633 7.68827 5.81932 8.85473 5.73912L8.67753 3.16187ZM24.307 23.0915C24.2341 24.2535 23.312 25.1805 22.1456 25.2607L22.3228 27.838C24.7772 27.6692 26.7309 25.7137 26.8853 23.2534L24.307 23.0915Z" fill="#454D61"/>
<path d="M11.9187 14.2376C11.2053 14.2376 10.627 14.8159 10.627 15.5293C10.627 16.2427 11.2053 16.821 11.9187 16.821V14.2376ZM19.0815 16.821C19.7948 16.821 20.3731 16.2427 20.3731 15.5293C20.3731 14.8159 19.7948 14.2376 19.0815 14.2376V16.821ZM11.9187 16.821H19.0815V14.2376H11.9187V16.821Z" fill="#454D61"/>
<path d="M11.9187 19.6978C11.2053 19.6978 10.627 20.2761 10.627 20.9894C10.627 21.7028 11.2053 22.2811 11.9187 22.2811V19.6978ZM19.0592 22.2811C19.7726 22.2811 20.3509 21.7028 20.3509 20.9894C20.3509 20.2761 19.7726 19.6978 19.0592 19.6978V22.2811ZM11.9187 8.57207C11.2053 8.57207 10.627 9.15037 10.627 9.86374C10.627 10.5771 11.2053 11.1554 11.9187 11.1554V8.57207ZM16.2411 11.1554C16.9544 11.1554 17.5327 10.5771 17.5327 9.86374C17.5327 9.15037 16.9544 8.57207 16.2411 8.57207V11.1554ZM11.9187 22.2811H19.0592V19.6978H11.9187V22.2811ZM11.9187 11.1554H16.2411V8.57207H11.9187V11.1554Z" fill="#454D61"/>
</svg>
