<svg width="24" height="24" viewBox="0 0 24 24" fill="none" xmlns="http://www.w3.org/2000/svg">
<path d="M7.13714 14.653C8.60236 14.653 9.79015 13.4652 9.79015 12C9.79015 10.5348 8.60236 9.347 7.13714 9.347C5.67192 9.347 4.48413 10.5348 4.48413 12C4.48413 13.4652 5.67192 14.653 7.13714 14.653Z" stroke="#2CB4F6" stroke-width="1.86119" stroke-linecap="round" stroke-linejoin="round"/>
<path d="M16.3469 9.55108C17.8121 9.55108 18.9999 8.36328 18.9999 6.89807C18.9999 5.43285 17.8121 4.24506 16.3469 4.24506C14.8816 4.24506 13.6938 5.43285 13.6938 6.89807C13.6938 8.36328 14.8816 9.55108 16.3469 9.55108Z" stroke="#2CB4F6" stroke-width="1.86119" stroke-linecap="round" stroke-linejoin="round"/>
<path d="M16.3469 19.755C17.8121 19.755 18.9999 18.5672 18.9999 17.1019C18.9999 15.6367 17.8121 14.4489 16.3469 14.4489C14.8816 14.4489 13.6938 15.6367 13.6938 17.1019C13.6938 18.5672 14.8816 19.755 16.3469 19.755Z" stroke="#2CB4F6" stroke-width="1.86119" stroke-linecap="round" stroke-linejoin="round"/>
<path d="M8.36719 9.67771C10.7898 8.31133 10.9368 8.29983 13.6938 7.52214" stroke="#2CB4F6" stroke-width="1.86119" stroke-linecap="round" stroke-linejoin="round"/>
<path d="M8.36719 14.3223C10.7898 15.6887 10.9368 15.7002 13.6938 16.4778" stroke="#2CB4F6" stroke-width="1.86119" stroke-linecap="round" stroke-linejoin="round"/>
</svg>
