<svg width="25" height="24" viewBox="0 0 25 24" fill="none" xmlns="http://www.w3.org/2000/svg">
<path d="M16.7078 4.28366L16.8141 3.32956L16.7078 4.28366ZM16.7078 19.7165L16.8141 20.6706L16.7078 19.7165ZM12.4999 19.0401C11.1219 19.0401 9.75924 18.9141 8.39846 18.7624L8.18576 20.6706C9.56305 20.8241 11.0117 20.9601 12.4999 20.9601V19.0401ZM16.6014 18.7624C15.2407 18.9141 13.878 19.0401 12.4999 19.0401V20.9601C13.9882 20.9601 15.4368 20.8241 16.8141 20.6706L16.6014 18.7624ZM21.1859 16.286C21.3326 14.9154 21.46 13.4771 21.46 12.0001H19.54C19.54 13.3727 19.4215 14.7296 19.2768 16.0817L21.1859 16.286ZM21.46 12.0001C21.46 10.523 21.3326 9.0847 21.1859 7.71419L19.2768 7.91844C19.4215 9.27054 19.54 10.6274 19.54 12.0001H21.46ZM12.4999 4.96001C13.878 4.96001 15.2407 5.08608 16.6014 5.23776L16.8141 3.32956C15.4368 3.17604 13.9882 3.03999 12.4999 3.03999V4.96001ZM8.39846 5.23776C9.75924 5.08608 11.1219 4.96001 12.4999 4.96001V3.03999C11.0117 3.03999 9.56305 3.17604 8.18576 3.32956L8.39846 5.23776ZM3.81395 7.71419C3.66732 9.0847 3.53987 10.523 3.53987 12.0001H5.45989C5.45989 10.6274 5.57841 9.27054 5.72307 7.91844L3.81395 7.71419ZM3.53987 12.0001C3.53987 13.4771 3.66732 14.9154 3.81395 16.286L5.72307 16.0817C5.57841 14.7296 5.45989 13.3727 5.45989 12.0001H3.53987ZM21.1859 7.71419C20.9405 5.42022 19.1027 3.58466 16.8141 3.32956L16.6014 5.23776C17.9992 5.39356 19.1277 6.52432 19.2768 7.91844L21.1859 7.71419ZM16.8141 20.6706C19.1027 20.4155 20.9405 18.5799 21.1859 16.286L19.2768 16.0817C19.1277 17.4758 17.9992 18.6066 16.6014 18.7624L16.8141 20.6706ZM8.18576 3.32956C5.89717 3.58466 4.05938 5.42022 3.81395 7.71419L5.72307 7.91844C5.87223 6.52432 7.00074 5.39356 8.39846 5.23776L8.18576 3.32956ZM8.39846 18.7624C7.00074 18.6066 5.87223 17.4758 5.72307 16.0817L3.81395 16.286C4.05938 18.5799 5.89717 20.4155 8.18576 20.6706L8.39846 18.7624Z" fill="white"/>
<path d="M13.4601 8.80005C13.4601 8.26985 13.0303 7.84004 12.5001 7.84004C11.9699 7.84004 11.5401 8.26985 11.5401 8.80005L13.4601 8.80005ZM11.5401 15.2001C11.5401 15.7303 11.9699 16.1601 12.5001 16.1601C13.0303 16.1601 13.4601 15.7303 13.4601 15.2001L11.5401 15.2001ZM11.5401 8.80005L11.5401 15.2001L13.4601 15.2001L13.4601 8.80005L11.5401 8.80005Z" fill="white"/>
<path d="M15.7001 12.96C16.2303 12.96 16.6601 12.5302 16.6601 12C16.6601 11.4698 16.2303 11.04 15.7001 11.04L15.7001 12.96ZM9.30002 11.04C8.76982 11.04 8.34001 11.4698 8.34001 12C8.34001 12.5302 8.76982 12.96 9.30002 12.96L9.30002 11.04ZM15.7001 11.04L9.30002 11.04L9.30002 12.96L15.7001 12.96L15.7001 11.04Z" fill="white"/>
</svg>
