<svg width="25" height="24" viewBox="0 0 25 24" fill="none" xmlns="http://www.w3.org/2000/svg">
<path d="M6.72454 3.3418C5.66393 4.40241 4.92021 5.72068 4.55432 7.14948M18.4548 3.3418C19.5154 4.40241 20.2591 5.72068 20.625 7.14948" stroke="#454D61" stroke-width="2" stroke-linecap="round" stroke-linejoin="round"/>
<path d="M5.64626 15.8198L6.30078 15.0638C6.28141 15.047 6.2614 15.031 6.2408 15.0157L5.64626 15.8198ZM19.5899 15.8198L18.9954 15.0157C18.9748 15.031 18.9548 15.047 18.9354 15.0638L19.5899 15.8198ZM19.6122 13.211L19.0172 14.0148L19.6122 13.211ZM5.62398 13.211L6.21898 14.0148L5.62398 13.211ZM12.6181 3.37744C11.072 3.37744 9.58928 3.99162 8.49604 5.08486L9.91025 6.49907C10.6284 5.7809 11.6025 5.37744 12.6181 5.37744V3.37744ZM8.49604 5.08486C7.4028 6.1781 6.78862 7.66085 6.78862 9.20692H8.78862C8.78862 8.19128 9.19208 7.21724 9.91025 6.49907L8.49604 5.08486ZM5.64626 15.8198C4.99173 16.5758 4.99262 16.5766 4.99351 16.5774C4.99382 16.5776 4.99472 16.5784 4.99533 16.5789C4.99655 16.58 4.99779 16.581 4.99904 16.5821C5.00156 16.5842 5.00415 16.5864 5.00682 16.5886C5.01215 16.5931 5.0178 16.5977 5.02376 16.6025C5.0357 16.6121 5.04891 16.6223 5.06349 16.6332C5.09264 16.6549 5.12722 16.6791 5.16791 16.7053C5.24928 16.7576 5.35509 16.8179 5.49097 16.883C5.76217 17.0128 6.15587 17.1627 6.71961 17.3052C7.84366 17.5894 9.67381 17.8516 12.6181 17.8516V15.8516C9.78243 15.8516 8.12666 15.598 7.20977 15.3662C6.75305 15.2508 6.48753 15.1427 6.35463 15.0791C6.28845 15.0474 6.256 15.0271 6.2496 15.023C6.24642 15.021 6.24975 15.023 6.25862 15.0296C6.26305 15.0329 6.26887 15.0373 6.27594 15.043C6.27947 15.0458 6.28332 15.049 6.28747 15.0524C6.28954 15.0542 6.29169 15.056 6.29391 15.0579C6.29502 15.0588 6.29614 15.0598 6.29729 15.0607C6.29786 15.0612 6.29874 15.062 6.29902 15.0622C6.2999 15.063 6.30078 15.0638 5.64626 15.8198ZM6.78862 9.20692C6.78862 10.1912 6.61515 10.9244 6.38464 11.4665L8.22515 12.2491C8.57174 11.434 8.78862 10.431 8.78862 9.20692H6.78862ZM5.02897 12.4073C4.26214 12.975 3.98987 13.8441 4.02663 14.6053C4.06238 15.3456 4.3958 16.1389 5.05171 16.6239L6.2408 15.0157C6.1585 14.9549 6.03702 14.7722 6.02431 14.5089C6.0126 14.2665 6.0983 14.1041 6.21898 14.0148L5.02897 12.4073ZM12.6181 5.37744C13.6337 5.37744 14.6078 5.7809 15.326 6.49907L16.7402 5.08486C15.6469 3.99162 14.1642 3.37744 12.6181 3.37744V5.37744ZM15.326 6.49907C16.0441 7.21724 16.4476 8.19128 16.4476 9.20692H18.4476C18.4476 7.66085 17.8334 6.1781 16.7402 5.08486L15.326 6.49907ZM19.5899 15.8198C18.9354 15.0638 18.9363 15.063 18.9372 15.0622C18.9375 15.062 18.9383 15.0612 18.9389 15.0607C18.9401 15.0598 18.9412 15.0588 18.9423 15.0579C18.9445 15.056 18.9467 15.0542 18.9487 15.0524C18.9529 15.049 18.9567 15.0458 18.9603 15.043C18.9673 15.0373 18.9732 15.0329 18.9776 15.0296C18.9865 15.023 18.9898 15.021 18.9866 15.023C18.9802 15.0271 18.9478 15.0474 18.8816 15.0791C18.7487 15.1427 18.4832 15.2508 18.0264 15.3662C17.1095 15.598 15.4538 15.8516 12.6181 15.8516V17.8516C15.5624 17.8516 17.3925 17.5894 18.5166 17.3052C19.0803 17.1627 19.474 17.0128 19.7452 16.883C19.8811 16.8179 19.9869 16.7576 20.0683 16.7053C20.109 16.6791 20.1436 16.6549 20.1727 16.6332C20.1873 16.6223 20.2005 16.6121 20.2124 16.6025C20.2184 16.5977 20.2241 16.5931 20.2294 16.5886C20.2321 16.5864 20.2346 16.5842 20.2372 16.5821C20.2384 16.581 20.2397 16.58 20.2409 16.5789C20.2415 16.5784 20.2424 16.5776 20.2427 16.5774C20.2436 16.5766 20.2445 16.5758 19.5899 15.8198ZM16.4476 9.20692C16.4476 10.431 16.6645 11.434 17.0111 12.2491L18.8516 11.4665C18.6211 10.9244 18.4476 10.1912 18.4476 9.20692H16.4476ZM19.0172 14.0148C19.1379 14.1041 19.2236 14.2665 19.2119 14.5089C19.1992 14.7722 19.0777 14.9549 18.9954 15.0157L20.1845 16.6239C20.8404 16.1389 21.1738 15.3456 21.2096 14.6053C21.2463 13.8441 20.9741 12.975 20.2072 12.4073L19.0172 14.0148ZM17.0111 12.2491C17.2745 12.8687 17.7524 13.2328 18.1184 13.467C18.2979 13.5819 18.4955 13.6923 18.6383 13.775C18.796 13.8663 18.9164 13.9401 19.0172 14.0148L20.2072 12.4073C20.0108 12.2619 19.8086 12.1415 19.6406 12.0443C19.4578 11.9384 19.3265 11.8656 19.1963 11.7823C18.9429 11.6202 18.8776 11.5277 18.8516 11.4665L17.0111 12.2491ZM6.38464 11.4665C6.35861 11.5277 6.2933 11.6202 6.03986 11.7823C5.90971 11.8656 5.77844 11.9384 5.59557 12.0443C5.42765 12.1415 5.2254 12.2619 5.02897 12.4073L6.21898 14.0148C6.31984 13.9401 6.44017 13.8663 6.59792 13.775C6.74074 13.6923 6.93826 13.5819 7.11783 13.467C7.48384 13.2328 7.9617 12.8687 8.22515 12.2491L6.38464 11.4665Z" fill="#454D61"/>
<path d="M11.7886 19.0928C11.5276 18.6061 10.9214 18.4231 10.4347 18.6842C9.948 18.9452 9.76506 19.5514 10.0261 20.0381L11.7886 19.0928ZM15.4553 20.0381C15.7164 19.5514 15.5334 18.9452 15.0467 18.6842C14.56 18.4231 13.9539 18.6061 13.6928 19.0928L15.4553 20.0381ZM12.7407 19.6632C12.3303 19.6632 11.9719 19.4345 11.7886 19.0928L10.0261 20.0381C10.5437 21.0032 11.5644 21.6632 12.7407 21.6632V19.6632ZM13.6928 19.0928C13.5096 19.4345 13.1511 19.6632 12.7407 19.6632V21.6632C13.917 21.6632 14.9377 21.0032 15.4553 20.0381L13.6928 19.0928Z" fill="#454D61"/>
</svg>
