<svg width="25" height="24" viewBox="0 0 25 24" fill="none" xmlns="http://www.w3.org/2000/svg">
<path d="M2.99259 13.5121C2.63198 13.9304 2.67875 14.5619 3.09706 14.9225C3.51537 15.2831 4.1468 15.2363 4.50741 14.818L2.99259 13.5121ZM21.2426 14.818C21.6032 15.2363 22.2346 15.2831 22.6529 14.9225C23.0712 14.5619 23.118 13.9304 22.7574 13.5121L21.2426 14.818ZM13.9923 4.87619L13.2349 5.52913L13.9923 4.87619ZM4.50741 14.818L12.5151 5.52913L11.0002 4.22325L2.99259 13.5121L4.50741 14.818ZM13.2349 5.52913L21.2426 14.818L22.7574 13.5121L14.7497 4.22325L13.2349 5.52913ZM12.5151 5.52913C12.7046 5.30923 13.0453 5.30923 13.2349 5.52913L14.7497 4.22325C13.7623 3.07785 11.9877 3.07785 11.0002 4.22325L12.5151 5.52913Z" fill="#2CB4F6"/>
<path d="M6.59839 11.0108L5.83959 10.3595C5.71498 10.5047 5.63463 10.6825 5.60808 10.872L6.59839 11.0108ZM19.3646 11.0108L20.3549 10.872C20.3284 10.6825 20.248 10.5047 20.1234 10.3595L19.3646 11.0108ZM19.6653 13.1557L18.6749 13.2945L19.6653 13.1557ZM17.648 19.6761H8.315V21.6761H17.648V19.6761ZM7.3572 11.6621L12.6209 5.52968L11.1033 4.22705L5.83959 10.3595L7.3572 11.6621ZM13.3421 5.52968L18.6058 11.6621L20.1234 10.3595L14.8597 4.22705L13.3421 5.52968ZM18.3743 11.1496L18.6749 13.2945L20.6556 13.0169L20.3549 10.872L18.3743 11.1496ZM7.28806 13.2945L7.58871 11.1496L5.60808 10.872L5.30742 13.0169L7.28806 13.2945ZM7.32548 18.8273C7.04327 16.9947 7.03067 15.1307 7.28806 13.2945L5.30742 13.0169C5.02295 15.0462 5.03689 17.1063 5.34878 19.1317L7.32548 18.8273ZM18.6749 13.2945C18.9323 15.1307 18.9197 16.9947 18.6375 18.8273L20.6142 19.1317C20.9261 17.1063 20.9401 15.0463 20.6556 13.0169L18.6749 13.2945ZM12.6209 5.52968C12.8105 5.30875 13.1525 5.30875 13.3421 5.52968L14.8597 4.22705C13.872 3.07629 12.091 3.07629 11.1033 4.22705L12.6209 5.52968ZM8.315 19.6761C7.8209 19.6761 7.40068 19.3156 7.32548 18.8273L5.34878 19.1317C5.57421 20.5956 6.83387 21.6761 8.315 21.6761V19.6761ZM17.648 21.6761C19.1291 21.6761 20.3888 20.5956 20.6142 19.1317L18.6375 18.8273C18.5623 19.3156 18.1421 19.6761 17.648 19.6761V21.6761Z" fill="#2CB4F6"/>
<path d="M12.8749 13.6084C14.2195 13.6084 15.3096 14.6985 15.3096 16.0431V20.4814H10.4402V16.0431C10.4402 14.6985 11.5302 13.6084 12.8749 13.6084Z" fill="white" stroke="#2CB4F6" stroke-width="2" stroke-linecap="round" stroke-linejoin="round"/>
</svg>
