<svg width="25" height="24" viewBox="0 0 25 24" fill="none" xmlns="http://www.w3.org/2000/svg">
<path d="M6.72442 3.3418C5.6638 4.40241 4.92009 5.72068 4.5542 7.14948M18.4547 3.3418C19.5153 4.40241 20.259 5.72068 20.6249 7.14948" stroke="#454D61" stroke-width="2" stroke-linecap="round" stroke-linejoin="round"/>
<path d="M5.64638 15.8198L6.3009 15.0638C6.28153 15.047 6.26152 15.031 6.24092 15.0157L5.64638 15.8198ZM19.5901 15.8198L18.9955 15.0157C18.9749 15.031 18.9549 15.047 18.9355 15.0638L19.5901 15.8198ZM19.6124 13.211L19.0173 14.0148L19.6124 13.211ZM5.6241 13.211L6.21911 14.0148L5.6241 13.211ZM12.6182 3.37744C11.0721 3.37744 9.5894 3.99162 8.49616 5.08486L9.91037 6.49907C10.6285 5.7809 11.6026 5.37744 12.6182 5.37744V3.37744ZM8.49616 5.08486C7.40292 6.1781 6.78874 7.66085 6.78874 9.20692H8.78874C8.78874 8.19128 9.19221 7.21724 9.91037 6.49907L8.49616 5.08486ZM5.64638 15.8198C4.99185 16.5758 4.99274 16.5766 4.99364 16.5774C4.99394 16.5776 4.99484 16.5784 4.99545 16.5789C4.99667 16.58 4.99791 16.581 4.99916 16.5821C5.00168 16.5842 5.00427 16.5864 5.00694 16.5886C5.01227 16.5931 5.01792 16.5977 5.02389 16.6025C5.03582 16.6121 5.04903 16.6223 5.06361 16.6332C5.09276 16.6549 5.12734 16.6791 5.16804 16.7053C5.2494 16.7576 5.35522 16.8179 5.49109 16.883C5.76229 17.0128 6.15599 17.1627 6.71974 17.3052C7.84379 17.5894 9.67393 17.8516 12.6182 17.8516V15.8516C9.78255 15.8516 8.12678 15.598 7.20989 15.3662C6.75317 15.2508 6.48765 15.1427 6.35475 15.0791C6.28857 15.0474 6.25612 15.0271 6.24972 15.023C6.24654 15.021 6.24987 15.023 6.25874 15.0296C6.26317 15.0329 6.26899 15.0373 6.27606 15.043C6.27959 15.0458 6.28344 15.049 6.28759 15.0524C6.28966 15.0542 6.29181 15.056 6.29403 15.0579C6.29514 15.0588 6.29627 15.0598 6.29741 15.0607C6.29799 15.0612 6.29886 15.062 6.29914 15.0622C6.30002 15.063 6.3009 15.0638 5.64638 15.8198ZM6.78874 9.20692C6.78874 10.1912 6.61527 10.9244 6.38476 11.4665L8.22528 12.2491C8.57186 11.434 8.78874 10.431 8.78874 9.20692H6.78874ZM5.02909 12.4073C4.26226 12.975 3.98999 13.8441 4.02676 14.6053C4.0625 15.3456 4.39592 16.1389 5.05184 16.6239L6.24092 15.0157C6.15863 14.9549 6.03715 14.7722 6.02443 14.5089C6.01272 14.2665 6.09842 14.1041 6.21911 14.0148L5.02909 12.4073ZM12.6182 5.37744C13.6339 5.37744 14.6079 5.7809 15.3261 6.49907L16.7403 5.08486C15.647 3.99162 14.1643 3.37744 12.6182 3.37744V5.37744ZM15.3261 6.49907C16.0442 7.21724 16.4477 8.19128 16.4477 9.20692H18.4477C18.4477 7.66085 17.8335 6.1781 16.7403 5.08486L15.3261 6.49907ZM19.5901 15.8198C18.9355 15.0638 18.9364 15.063 18.9373 15.0622C18.9376 15.062 18.9385 15.0612 18.939 15.0607C18.9402 15.0598 18.9413 15.0588 18.9424 15.0579C18.9446 15.056 18.9468 15.0542 18.9489 15.0524C18.953 15.049 18.9569 15.0458 18.9604 15.043C18.9675 15.0373 18.9733 15.0329 18.9777 15.0296C18.9866 15.023 18.9899 15.021 18.9867 15.023C18.9803 15.0271 18.9479 15.0474 18.8817 15.0791C18.7488 15.1427 18.4833 15.2508 18.0266 15.3662C17.1097 15.598 15.4539 15.8516 12.6182 15.8516V17.8516C15.5625 17.8516 17.3927 17.5894 18.5167 17.3052C19.0805 17.1627 19.4742 17.0128 19.7454 16.883C19.8812 16.8179 19.987 16.7576 20.0684 16.7053C20.1091 16.6791 20.1437 16.6549 20.1728 16.6332C20.1874 16.6223 20.2006 16.6121 20.2126 16.6025C20.2185 16.5977 20.2242 16.5931 20.2295 16.5886C20.2322 16.5864 20.2348 16.5842 20.2373 16.5821C20.2385 16.581 20.2398 16.58 20.241 16.5789C20.2416 16.5784 20.2425 16.5776 20.2428 16.5774C20.2437 16.5766 20.2446 16.5758 19.5901 15.8198ZM16.4477 9.20692C16.4477 10.431 16.6646 11.434 17.0112 12.2491L18.8517 11.4665C18.6212 10.9244 18.4477 10.1912 18.4477 9.20692H16.4477ZM19.0173 14.0148C19.138 14.1041 19.2237 14.2665 19.212 14.5089C19.1993 14.7722 19.0778 14.9549 18.9955 15.0157L20.1846 16.6239C20.8405 16.1389 21.1739 15.3456 21.2097 14.6053C21.2465 13.8441 20.9742 12.975 20.2074 12.4073L19.0173 14.0148ZM17.0112 12.2491C17.2746 12.8687 17.7525 13.2328 18.1185 13.467C18.2981 13.5819 18.4956 13.6923 18.6384 13.775C18.7962 13.8663 18.9165 13.9401 19.0173 14.0148L20.2074 12.4073C20.0109 12.2619 19.8087 12.1415 19.6408 12.0443C19.4579 11.9384 19.3266 11.8656 19.1965 11.7823C18.943 11.6202 18.8777 11.5277 18.8517 11.4665L17.0112 12.2491ZM6.38476 11.4665C6.35873 11.5277 6.29342 11.6202 6.03998 11.7823C5.90984 11.8656 5.77856 11.9384 5.5957 12.0443C5.42777 12.1415 5.22552 12.2619 5.02909 12.4073L6.21911 14.0148C6.31996 13.9401 6.44029 13.8663 6.59805 13.775C6.74086 13.6923 6.93838 13.5819 7.11795 13.467C7.48396 13.2328 7.96182 12.8687 8.22528 12.2491L6.38476 11.4665Z" fill="#454D61"/>
<path d="M11.7885 19.0928C11.5274 18.6061 10.9213 18.4231 10.4346 18.6842C9.94788 18.9452 9.76494 19.5514 10.026 20.0381L11.7885 19.0928ZM15.4552 20.0381C15.7163 19.5514 15.5333 18.9452 15.0466 18.6842C14.5599 18.4231 13.9537 18.6061 13.6927 19.0928L15.4552 20.0381ZM12.7406 19.6632C12.3302 19.6632 11.9717 19.4345 11.7885 19.0928L10.026 20.0381C10.5436 21.0032 11.5643 21.6632 12.7406 21.6632V19.6632ZM13.6927 19.0928C13.5095 19.4345 13.151 19.6632 12.7406 19.6632V21.6632C13.9169 21.6632 14.9376 21.0032 15.4552 20.0381L13.6927 19.0928Z" fill="#454D61"/>
</svg>
