<svg width="33" height="32" viewBox="0 0 33 32" fill="none" xmlns="http://www.w3.org/2000/svg">
<path d="M25.9511 9.05947L26.9487 8.98925L25.9511 9.05947ZM24.2209 27.4844L24.3044 28.4809L24.2209 27.4844ZM9.27924 27.4844L9.19569 28.4809L9.27924 27.4844ZM16.7501 7.59665C19.2473 7.59665 21.6684 7.96311 24.1028 8.26219L24.3467 6.27711C21.9894 5.98752 19.404 5.59665 16.7501 5.59665V7.59665ZM9.39727 8.26219C11.8317 7.96311 14.2528 7.59665 16.7501 7.59665V5.59665C14.0961 5.59665 11.5107 5.98752 9.1534 6.27711L9.39727 8.26219ZM24.1373 26.4879C19.0661 26.913 14.434 26.913 9.36278 26.4879L9.19569 28.4809C14.3781 28.9153 19.122 28.9153 24.3044 28.4809L24.1373 26.4879ZM26.9487 25.7984C27.3504 20.0912 27.3504 14.6965 26.9487 8.98925L24.9536 9.1297C25.3488 14.7434 25.3488 20.0442 24.9536 25.6579L26.9487 25.7984ZM6.55146 8.98925C6.14968 14.6964 6.14968 20.0912 6.55146 25.7984L8.54652 25.6579C8.15132 20.0442 8.15132 14.7434 8.54652 9.1297L6.55146 8.98925ZM9.1534 6.27711C7.7701 6.44705 6.65204 7.5605 6.55146 8.98925L8.54652 9.1297C8.5772 8.69384 8.9253 8.32017 9.39727 8.26219L9.1534 6.27711ZM24.1028 8.26219C24.5748 8.32017 24.9229 8.69384 24.9536 9.1297L26.9487 8.98925C26.8481 7.5605 25.73 6.44705 24.3467 6.27711L24.1028 8.26219ZM24.3044 28.4809C25.729 28.3615 26.8485 27.2206 26.9487 25.7984L24.9536 25.6579C24.9224 26.1003 24.5754 26.4511 24.1373 26.4879L24.3044 28.4809ZM9.36278 26.4879C8.92471 26.4511 8.57766 26.1003 8.54652 25.6579L6.55146 25.7984C6.65158 27.2206 7.77108 28.3614 9.19569 28.4809L9.36278 26.4879Z" fill="white"/>
<path d="M13.059 14.0377C12.5067 14.0377 12.059 14.4854 12.059 15.0377C12.059 15.59 12.5067 16.0377 13.059 16.0377V14.0377ZM20.4411 16.0377C20.9934 16.0377 21.4411 15.59 21.4411 15.0377C21.4411 14.4854 20.9934 14.0377 20.4411 14.0377V16.0377ZM13.059 16.0377H20.4411V14.0377H13.059V16.0377Z" fill="white"/>
<path d="M13.059 19.665C12.5067 19.665 12.059 20.1127 12.059 20.665C12.059 21.2173 12.5067 21.665 13.059 21.665V19.665ZM17.5137 21.665C18.066 21.665 18.5137 21.2173 18.5137 20.665C18.5137 20.1127 18.066 19.665 17.5137 19.665V21.665ZM13.059 21.665H17.5137V19.665H13.059V21.665Z" fill="white"/>
<rect x="11.2739" y="3.87376" width="10.9522" height="5.74837" rx="2.87418" fill="#81CAFA" stroke="white" stroke-width="2" stroke-linejoin="round"/>
</svg>
