<svg width="24" height="24" viewBox="0 0 24 24" fill="none" xmlns="http://www.w3.org/2000/svg">
<path d="M16.2079 4.28354L16.3143 3.32944L16.2079 4.28354ZM16.2079 19.7164L16.3143 20.6705L16.2079 19.7164ZM12.0001 19.04C10.622 19.04 9.25936 18.9139 7.89858 18.7623L7.68588 20.6705C9.06317 20.824 10.5118 20.96 12.0001 20.96V19.04ZM16.1016 18.7623C14.7408 18.9139 13.3781 19.04 12.0001 19.04V20.96C13.4883 20.96 14.937 20.824 16.3143 20.6705L16.1016 18.7623ZM20.6861 16.2858C20.8327 14.9153 20.9601 13.477 20.9601 11.9999H19.0401C19.0401 13.3726 18.9216 14.7295 18.7769 16.0816L20.6861 16.2858ZM20.9601 11.9999C20.9601 10.5229 20.8327 9.08458 20.6861 7.71407L18.7769 7.91832C18.9216 9.27042 19.0401 10.6273 19.0401 11.9999H20.9601ZM12.0001 4.95989C13.3781 4.95989 14.7408 5.08596 16.1016 5.23764L16.3143 3.32944C14.937 3.17592 13.4883 3.03987 12.0001 3.03987V4.95989ZM7.89858 5.23764C9.25936 5.08596 10.622 4.95989 12.0001 4.95989V3.03987C10.5118 3.03987 9.06317 3.17592 7.68588 3.32944L7.89858 5.23764ZM3.31407 7.71407C3.16744 9.08458 3.03999 10.5229 3.03999 11.9999H4.96001C4.96001 10.6273 5.07853 9.27042 5.22319 7.91832L3.31407 7.71407ZM3.03999 11.9999C3.03999 13.477 3.16744 14.9153 3.31407 16.2858L5.22319 16.0816C5.07853 14.7295 4.96001 13.3726 4.96001 11.9999H3.03999ZM20.6861 7.71407C20.4406 5.4201 18.6028 3.58454 16.3143 3.32944L16.1016 5.23764C17.4993 5.39344 18.6278 6.52419 18.7769 7.91832L20.6861 7.71407ZM16.3143 20.6705C18.6028 20.4154 20.4406 18.5798 20.6861 16.2858L18.7769 16.0816C18.6278 17.4757 17.4993 18.6065 16.1016 18.7623L16.3143 20.6705ZM7.68588 3.32944C5.39729 3.58454 3.5595 5.4201 3.31407 7.71407L5.22319 7.91832C5.37235 6.52419 6.50086 5.39344 7.89858 5.23764L7.68588 3.32944ZM7.89858 18.7623C6.50086 18.6065 5.37235 17.4757 5.22319 16.0816L3.31407 16.2858C3.5595 18.5798 5.39729 20.4154 7.68588 20.6705L7.89858 18.7623Z" fill="#2CB4F6"/>
<path d="M12.96 8.79993C12.96 8.26973 12.5302 7.83992 12 7.83992C11.4698 7.83992 11.04 8.26973 11.04 8.79993L12.96 8.79993ZM11.04 15.2C11.04 15.7302 11.4698 16.16 12 16.16C12.5302 16.16 12.96 15.7302 12.96 15.2L11.04 15.2ZM11.04 8.79993L11.04 15.2L12.96 15.2L12.96 8.79993L11.04 8.79993Z" fill="#2CB4F6"/>
<path d="M15.2002 12.96C15.7304 12.96 16.1602 12.5302 16.1602 12C16.1602 11.4698 15.7304 11.04 15.2002 11.04L15.2002 12.96ZM8.80014 11.04C8.26994 11.04 7.84013 11.4698 7.84013 12C7.84013 12.5302 8.26994 12.96 8.80014 12.96L8.80014 11.04ZM15.2002 11.04L8.80014 11.04L8.80014 12.96L15.2002 12.96L15.2002 11.04Z" fill="#2CB4F6"/>
</svg>
