<svg width="24" height="24" viewBox="0 0 24 24" fill="none" xmlns="http://www.w3.org/2000/svg">
<path d="M16.2079 4.28366L16.3143 3.32956L16.2079 4.28366ZM16.2079 19.7165L16.3143 20.6706L16.2079 19.7165ZM12.0001 19.0401C10.622 19.0401 9.25936 18.9141 7.89858 18.7624L7.68588 20.6706C9.06317 20.8241 10.5118 20.9601 12.0001 20.9601V19.0401ZM16.1016 18.7624C14.7408 18.9141 13.3781 19.0401 12.0001 19.0401V20.9601C13.4883 20.9601 14.937 20.8241 16.3143 20.6706L16.1016 18.7624ZM20.6861 16.286C20.8327 14.9154 20.9601 13.4771 20.9601 12.0001H19.0401C19.0401 13.3727 18.9216 14.7296 18.7769 16.0817L20.6861 16.286ZM20.9601 12.0001C20.9601 10.523 20.8327 9.0847 20.6861 7.71419L18.7769 7.91844C18.9216 9.27054 19.0401 10.6274 19.0401 12.0001H20.9601ZM12.0001 4.96001C13.3781 4.96001 14.7408 5.08608 16.1016 5.23776L16.3143 3.32956C14.937 3.17604 13.4883 3.03999 12.0001 3.03999V4.96001ZM7.89858 5.23776C9.25936 5.08608 10.622 4.96001 12.0001 4.96001V3.03999C10.5118 3.03999 9.06317 3.17604 7.68588 3.32956L7.89858 5.23776ZM3.31407 7.71419C3.16744 9.0847 3.03999 10.523 3.03999 12.0001H4.96001C4.96001 10.6274 5.07853 9.27054 5.22319 7.91844L3.31407 7.71419ZM3.03999 12.0001C3.03999 13.4771 3.16744 14.9154 3.31407 16.286L5.22319 16.0817C5.07853 14.7296 4.96001 13.3727 4.96001 12.0001H3.03999ZM20.6861 7.71419C20.4406 5.42022 18.6028 3.58466 16.3143 3.32956L16.1016 5.23776C17.4993 5.39356 18.6278 6.52432 18.7769 7.91844L20.6861 7.71419ZM16.3143 20.6706C18.6028 20.4155 20.4406 18.5799 20.6861 16.286L18.7769 16.0817C18.6278 17.4758 17.4993 18.6066 16.1016 18.7624L16.3143 20.6706ZM7.68588 3.32956C5.39729 3.58466 3.5595 5.42022 3.31407 7.71419L5.22319 7.91844C5.37235 6.52432 6.50086 5.39356 7.89858 5.23776L7.68588 3.32956ZM7.89858 18.7624C6.50086 18.6066 5.37235 17.4758 5.22319 16.0817L3.31407 16.286C3.5595 18.5799 5.39729 20.4155 7.68588 20.6706L7.89858 18.7624Z" fill="#2CB4F6"/>
<path d="M12.96 8.80005C12.96 8.26985 12.5302 7.84004 12 7.84004C11.4698 7.84004 11.04 8.26985 11.04 8.80005L12.96 8.80005ZM11.04 15.2001C11.04 15.7303 11.4698 16.1601 12 16.1601C12.5302 16.1601 12.96 15.7303 12.96 15.2001L11.04 15.2001ZM11.04 8.80005L11.04 15.2001L12.96 15.2001L12.96 8.80005L11.04 8.80005Z" fill="#2CB4F6"/>
<path d="M15.2002 12.96C15.7304 12.96 16.1602 12.5302 16.1602 12C16.1602 11.4698 15.7304 11.04 15.2002 11.04L15.2002 12.96ZM8.80014 11.04C8.26994 11.04 7.84013 11.4698 7.84013 12C7.84013 12.5302 8.26994 12.96 8.80014 12.96L8.80014 11.04ZM15.2002 11.04L8.80014 11.04L8.80014 12.96L15.2002 12.96L15.2002 11.04Z" fill="#2CB4F6"/>
</svg>
