<svg width="24" height="24" viewBox="0 0 24 24" fill="none" xmlns="http://www.w3.org/2000/svg">
<path d="M16.2078 4.28354L16.3141 3.32944L16.2078 4.28354ZM16.2078 19.7164L16.3141 20.6705L16.2078 19.7164ZM11.9999 19.04C10.6219 19.04 9.25924 18.9139 7.89846 18.7623L7.68576 20.6705C9.06305 20.824 10.5117 20.96 11.9999 20.96V19.04ZM16.1014 18.7623C14.7407 18.9139 13.378 19.04 11.9999 19.04V20.96C13.4882 20.96 14.9368 20.824 16.3141 20.6705L16.1014 18.7623ZM20.6859 16.2858C20.8326 14.9153 20.96 13.477 20.96 11.9999H19.04C19.04 13.3726 18.9215 14.7295 18.7768 16.0816L20.6859 16.2858ZM20.96 11.9999C20.96 10.5229 20.8326 9.08458 20.6859 7.71407L18.7768 7.91832C18.9215 9.27042 19.04 10.6273 19.04 11.9999H20.96ZM11.9999 4.95989C13.378 4.95989 14.7407 5.08596 16.1014 5.23764L16.3141 3.32944C14.9368 3.17592 13.4882 3.03987 11.9999 3.03987V4.95989ZM7.89846 5.23764C9.25924 5.08596 10.6219 4.95989 11.9999 4.95989V3.03987C10.5117 3.03987 9.06305 3.17592 7.68576 3.32944L7.89846 5.23764ZM3.31395 7.71407C3.16732 9.08458 3.03987 10.5229 3.03987 11.9999H4.95989C4.95989 10.6273 5.07841 9.27042 5.22307 7.91832L3.31395 7.71407ZM3.03987 11.9999C3.03987 13.477 3.16732 14.9153 3.31395 16.2858L5.22307 16.0816C5.07841 14.7295 4.95989 13.3726 4.95989 11.9999H3.03987ZM20.6859 7.71407C20.4405 5.4201 18.6027 3.58454 16.3141 3.32944L16.1014 5.23764C17.4992 5.39344 18.6277 6.52419 18.7768 7.91832L20.6859 7.71407ZM16.3141 20.6705C18.6027 20.4154 20.4405 18.5798 20.6859 16.2858L18.7768 16.0816C18.6277 17.4757 17.4992 18.6065 16.1014 18.7623L16.3141 20.6705ZM7.68576 3.32944C5.39717 3.58454 3.55938 5.4201 3.31395 7.71407L5.22307 7.91832C5.37223 6.52419 6.50074 5.39344 7.89846 5.23764L7.68576 3.32944ZM7.89846 18.7623C6.50074 18.6065 5.37223 17.4757 5.22307 16.0816L3.31395 16.2858C3.55938 18.5798 5.39717 20.4154 7.68576 20.6705L7.89846 18.7623Z" fill="white"/>
<path d="M12.9601 8.79993C12.9601 8.26973 12.5303 7.83992 12.0001 7.83992C11.4699 7.83992 11.0401 8.26973 11.0401 8.79993L12.9601 8.79993ZM11.0401 15.2C11.0401 15.7302 11.4699 16.16 12.0001 16.16C12.5303 16.16 12.9601 15.7302 12.9601 15.2L11.0401 15.2ZM11.0401 8.79993L11.0401 15.2L12.9601 15.2L12.9601 8.79993L11.0401 8.79993Z" fill="white"/>
<path d="M15.2001 12.96C15.7303 12.96 16.1601 12.5302 16.1601 12C16.1601 11.4698 15.7303 11.04 15.2001 11.04L15.2001 12.96ZM8.80002 11.04C8.26982 11.04 7.84001 11.4698 7.84001 12C7.84001 12.5302 8.26982 12.96 8.80002 12.96L8.80002 11.04ZM15.2001 11.04L8.80002 11.04L8.80002 12.96L15.2001 12.96L15.2001 11.04Z" fill="white"/>
</svg>
