<svg width="24" height="24" viewBox="0 0 24 24" fill="none" xmlns="http://www.w3.org/2000/svg">
<path d="M11.0863 7.49029L11.1073 6.5253L11.0863 7.49029ZM12.2523 7.89731L11.6625 8.66132L12.2523 7.89731ZM15.498 12.0008L16.4629 11.9765L15.498 12.0008ZM13.5043 19.9198L13.4382 18.9569L13.5043 19.9198ZM14.5548 13.76C14.5548 15.2026 14.5101 16.6098 14.4251 17.967L16.3518 18.0876C16.4393 16.6898 16.4852 15.2423 16.4852 13.76H14.5548ZM6.08203 8.56317C7.24263 8.48356 8.36459 8.44172 9.76013 8.44172V6.51128C8.32113 6.51128 7.15511 6.55459 5.94993 6.63726L6.08203 8.56317ZM4.96546 13.76C4.96546 12.3174 5.01018 10.9102 5.09517 9.55304L3.1685 9.43239C3.08097 10.8303 3.03503 12.2777 3.03503 13.76H4.96546ZM5.09517 17.967C5.01018 16.6098 4.96546 15.2026 4.96546 13.76H3.03503C3.03503 15.2423 3.08097 16.6898 3.1685 18.0876L5.09517 17.967ZM9.76013 19.0783C8.36459 19.0783 7.24263 19.0365 6.08203 18.9569L5.94993 20.8828C7.15511 20.9654 8.32113 21.0087 9.76013 21.0087V19.0783ZM13.4382 18.9569C12.2776 19.0365 11.1557 19.0783 9.76013 19.0783V21.0087C11.1991 21.0087 12.3652 20.9654 13.5703 20.8828L13.4382 18.9569ZM9.76013 8.44172C10.2218 8.44172 10.6531 8.4463 11.0653 8.45528L11.1073 6.5253C10.68 6.51599 10.2347 6.51128 9.76013 6.51128V8.44172ZM14.5331 12.0251C14.5475 12.5969 14.5548 13.1756 14.5548 13.76H16.4852C16.4852 13.1594 16.4777 12.5646 16.4629 11.9765L14.5331 12.0251ZM11.6625 8.66132C12.7894 9.53134 13.4609 10.2432 14.3335 11.4317L15.8896 10.2892C14.9235 8.97337 14.1287 8.12654 12.8422 7.1333L11.6625 8.66132ZM11.0653 8.45528C11.2887 8.46015 11.4976 8.53406 11.6625 8.66132L12.8422 7.1333C12.3389 6.74472 11.7278 6.53882 11.1073 6.5253L11.0653 8.45528ZM3.1685 18.0876C3.26245 19.5879 4.45387 20.7802 5.94993 20.8828L6.08203 18.9569C5.54871 18.9203 5.12835 18.4969 5.09517 17.967L3.1685 18.0876ZM16.4629 11.9765C16.4477 11.3739 16.2522 10.7831 15.8896 10.2892L14.3335 11.4317C14.4569 11.5997 14.5276 11.8067 14.5331 12.0251L16.4629 11.9765ZM5.94993 6.63726C4.45386 6.73988 3.26245 7.9321 3.1685 9.43239L5.09517 9.55304C5.12835 9.02316 5.54871 8.59975 6.08203 8.56317L5.94993 6.63726ZM14.4251 17.967C14.3919 18.4969 13.9715 18.9203 13.4382 18.9569L13.5703 20.8828C15.0664 20.7802 16.2578 19.5879 16.3518 18.0876L14.4251 17.967Z" fill="#454D61"/>
<path d="M19.8682 14.5074C19.9544 13.1298 19.9998 11.7025 19.9998 10.2401C19.9998 9.64755 19.9923 9.06081 19.9777 8.48082C19.9674 8.07036 19.8343 7.67144 19.5913 7.34048C18.6719 6.08834 17.9388 5.30898 16.7321 4.37735C16.398 4.11943 15.988 3.97953 15.566 3.97033C15.1463 3.96119 14.708 3.95654 14.2399 3.95654C12.8226 3.95654 11.6786 3.99912 10.4957 4.08025C9.48103 4.14985 8.67513 4.95767 8.61157 5.97275C8.52531 7.35028 8.47998 8.77759 8.47998 10.2401C8.47998 11.7025 8.52531 13.1298 8.61157 14.5074C8.67513 15.5224 9.48103 16.3303 10.4957 16.3999C11.6786 16.481 12.8226 16.5236 14.2399 16.5236C15.6571 16.5236 16.8011 16.481 17.984 16.3999C18.9987 16.3303 19.8046 15.5224 19.8682 14.5074Z" fill="#EDEEF0"/>
<path d="M19.8682 14.5074L20.8315 14.5677L19.8682 14.5074ZM10.4957 4.08025L10.4297 3.1173L10.4957 4.08025ZM8.61157 5.97275L9.5749 6.03308L8.61157 5.97275ZM8.61157 14.5074L7.64824 14.5677L8.61157 14.5074ZM10.4957 16.3999L10.5618 15.4369H10.5618L10.4957 16.3999ZM17.984 16.3999L17.918 15.4369L17.984 16.3999ZM15.566 3.97033L15.545 4.93532L15.566 3.97033ZM19.9777 8.48082L20.9426 8.45655V8.45655L19.9777 8.48082ZM16.7321 4.37735L17.3219 3.61334L17.3219 3.61334L16.7321 4.37735ZM19.5913 7.34048L18.8133 7.91172V7.91172L19.5913 7.34048ZM19.0345 10.2401C19.0345 11.6827 18.9898 13.0899 18.9048 14.447L20.8315 14.5677C20.919 13.1698 20.965 11.7224 20.965 10.2401H19.0345ZM10.5618 5.04321C11.7224 4.9636 12.8443 4.92176 14.2399 4.92176V2.99133C12.8009 2.99133 11.6348 3.03463 10.4297 3.1173L10.5618 5.04321ZM9.4452 10.2401C9.4452 8.79744 9.48992 7.39025 9.5749 6.03308L7.64824 5.91243C7.56071 7.3103 7.51476 8.75774 7.51476 10.2401H9.4452ZM9.5749 14.447C9.48992 13.0899 9.4452 11.6827 9.4452 10.2401H7.51476C7.51476 11.7224 7.56071 13.1698 7.64824 14.5677L9.5749 14.447ZM14.2399 15.5584C12.8443 15.5584 11.7224 15.5165 10.5618 15.4369L10.4297 17.3628C11.6348 17.4455 12.8009 17.4888 14.2399 17.4888V15.5584ZM17.918 15.4369C16.7574 15.5165 15.6354 15.5584 14.2399 15.5584V17.4888C15.6789 17.4888 16.8449 17.4455 18.0501 17.3628L17.918 15.4369ZM14.2399 4.92176C14.7016 4.92176 15.1328 4.92634 15.545 4.93532L15.5871 3.00534C15.1597 2.99603 14.7144 2.99133 14.2399 2.99133V4.92176ZM19.0128 8.50509C19.0272 9.07698 19.0345 9.65562 19.0345 10.2401H20.965C20.965 9.63947 20.9574 9.04465 20.9426 8.45655L19.0128 8.50509ZM16.1422 5.14136C17.2691 6.01138 17.9407 6.72327 18.8133 7.91172L20.3693 6.76924C19.4032 5.45341 18.6084 4.60658 17.3219 3.61334L16.1422 5.14136ZM15.545 4.93532C15.7684 4.94019 15.9774 5.0141 16.1422 5.14136L17.3219 3.61334C16.8186 3.22476 16.2076 3.01886 15.5871 3.00534L15.545 4.93532ZM7.64824 14.5677C7.74219 16.068 8.9336 17.2602 10.4297 17.3628L10.5618 15.4369C10.0285 15.4003 9.60808 14.9769 9.5749 14.447L7.64824 14.5677ZM20.9426 8.45655C20.9275 7.85398 20.732 7.26316 20.3693 6.76924L18.8133 7.91172C18.9366 8.07973 19.0073 8.28674 19.0128 8.50509L20.9426 8.45655ZM10.4297 3.1173C8.9336 3.21992 7.74219 4.41214 7.64824 5.91243L9.5749 6.03308C9.60808 5.5032 10.0285 5.07979 10.5618 5.04321L10.4297 3.1173ZM18.9048 14.447C18.8717 14.9769 18.4513 15.4003 17.918 15.4369L18.0501 17.3628C19.5461 17.2602 20.7375 16.068 20.8315 14.5677L18.9048 14.447Z" fill="#454D61"/>
</svg>
