<svg width="24" height="24" viewBox="0 0 24 24" fill="none" xmlns="http://www.w3.org/2000/svg">
<path d="M4.81626 15.7551V13.1429H2.85708V15.7551H4.81626ZM4.81626 13.1429C4.81626 12.2412 4.97216 11.4913 5.3048 10.9924C5.59071 10.5635 6.08121 10.2041 7.10198 10.2041V8.2449C5.51049 8.2449 4.36835 8.86507 3.67466 9.9056C3.02771 10.876 2.85708 12.0854 2.85708 13.1429H4.81626ZM21.1428 15.7551V13.1429H19.1836V15.7551H21.1428ZM21.1428 13.1429C21.1428 12.0854 20.9722 10.876 20.3252 9.9056C19.6315 8.86507 18.4894 8.2449 16.8979 8.2449V10.2041C17.9187 10.2041 18.4092 10.5635 18.6951 10.9924C19.0277 11.4913 19.1836 12.2412 19.1836 13.1429H21.1428ZM7.10198 10.2041H16.8979V8.2449H7.10198V10.2041ZM5.14279 18.0408H18.8571V16.0816H5.14279V18.0408ZM19.1836 15.7551C19.1836 15.9354 19.0374 16.0816 18.8571 16.0816V18.0408C20.1194 18.0408 21.1428 17.0175 21.1428 15.7551H19.1836ZM2.85708 15.7551C2.85708 17.0175 3.88043 18.0408 5.14279 18.0408V16.0816C4.96245 16.0816 4.81626 15.9354 4.81626 15.7551H2.85708Z" fill="#454D61"/>
<path d="M6.77539 5.30612V9.22449H17.2244V5.30612C17.2244 4.58477 16.6396 4 15.9182 4H8.08151C7.36016 4 6.77539 4.58477 6.77539 5.30612Z" fill="#EDEEF0"/>
<path d="M6.77539 9.22449H5.7958C5.7958 9.7655 6.23438 10.2041 6.77539 10.2041V9.22449ZM17.2244 9.22449V10.2041C17.7654 10.2041 18.204 9.7655 18.204 9.22449H17.2244ZM7.75498 9.22449V5.30612H5.7958V9.22449H7.75498ZM8.08151 4.97959H15.9182V3.02041H8.08151V4.97959ZM16.2448 5.30612V9.22449H18.204V5.30612H16.2448ZM17.2244 8.2449H6.77539V10.2041H17.2244V8.2449ZM15.9182 4.97959C16.0986 4.97959 16.2448 5.12579 16.2448 5.30612H18.204C18.204 4.04376 17.1806 3.02041 15.9182 3.02041V4.97959ZM7.75498 5.30612C7.75498 5.12578 7.90118 4.97959 8.08151 4.97959V3.02041C6.81915 3.02041 5.7958 4.04376 5.7958 5.30612H7.75498Z" fill="#454D61"/>
<path d="M16.5713 15.4286C17.3366 15.9153 17.6893 17.3299 17.8173 18.6958C17.8846 19.414 17.2927 20 16.5713 20H7.42844C6.70708 20 6.11512 19.414 6.18245 18.6958C6.31048 17.3299 6.66313 15.9153 7.42844 15.4286H16.5713Z" fill="#EDEEF0"/>
<path d="M17.8173 18.6958L18.7926 18.6043V18.6043L17.8173 18.6958ZM16.5713 15.4286L17.097 14.602C16.9399 14.5021 16.7575 14.449 16.5713 14.449V15.4286ZM6.18245 18.6958L7.15776 18.7872L6.18245 18.6958ZM7.42844 15.4286V14.449C7.24222 14.449 7.05987 14.5021 6.90274 14.602L7.42844 15.4286ZM18.7926 18.6043C18.7246 17.879 18.5941 17.1007 18.3603 16.4159C18.1375 15.7633 17.7644 15.0265 17.097 14.602L16.0456 16.2552C16.1435 16.3175 16.3295 16.5313 16.5062 17.049C16.6721 17.5347 16.7819 18.1466 16.842 18.7872L18.7926 18.6043ZM7.15776 18.7872C7.21781 18.1466 7.32766 17.5347 7.4935 17.049C7.67029 16.5313 7.85621 16.3175 7.95414 16.2552L6.90274 14.602C6.23536 15.0265 5.86229 15.7633 5.63943 16.4159C5.4056 17.1007 5.27512 17.879 5.20713 18.6043L7.15776 18.7872ZM16.5713 14.449H7.42844V16.4082H16.5713V14.449ZM16.5713 19.0204H7.42844V20.9796H16.5713V19.0204ZM5.20713 18.6043C5.08012 19.9593 6.1943 20.9796 7.42844 20.9796V19.0204C7.33471 19.0204 7.259 18.9826 7.21202 18.9343C7.16884 18.8899 7.15262 18.842 7.15776 18.7872L5.20713 18.6043ZM16.842 18.7872C16.8471 18.842 16.8309 18.8899 16.7877 18.9343C16.7407 18.9826 16.665 19.0204 16.5713 19.0204V20.9796C17.8054 20.9796 18.9196 19.9593 18.7926 18.6043L16.842 18.7872Z" fill="#454D61"/>
</svg>
