<svg width="24" height="24" viewBox="0 0 24 24" fill="none" xmlns="http://www.w3.org/2000/svg">
<path d="M9.68848 2.78763L9.68848 6.53034" stroke="#454D61" stroke-width="2" stroke-linecap="round"/>
<path d="M15.3013 2.78763L15.3013 6.53034" stroke="#454D61" stroke-width="2" stroke-linecap="round"/>
<path d="M21.5712 17.9123L20.5774 17.8009L21.5712 17.9123ZM12.4999 21.0964C10.8132 21.0964 9.26089 21.0583 7.74212 20.9852L7.64591 22.9828C9.1978 23.0576 10.7822 23.0964 12.4999 23.0964V21.0964ZM17.2577 20.9852C15.739 21.0583 14.1866 21.0964 12.4999 21.0964V23.0964C14.2176 23.0964 15.8021 23.0576 17.354 22.9828L17.2577 20.9852ZM22.565 18.0237C22.7331 16.5233 22.8749 14.954 22.8749 13.3438H20.8749C20.8749 14.8423 20.7429 16.3247 20.5774 17.8009L22.565 18.0237ZM22.8749 13.3438C22.8749 11.7336 22.7331 10.1643 22.565 8.66391L20.5774 8.88669C20.7429 10.3629 20.8749 11.8453 20.8749 13.3438H22.8749ZM12.4999 5.59119C14.1866 5.59119 15.739 5.62926 17.2577 5.7024L17.354 3.70472C15.8021 3.62998 14.2176 3.59119 12.4999 3.59119V5.59119ZM7.74212 5.7024C9.26089 5.62926 10.8132 5.59119 12.4999 5.59119V3.59119C10.7822 3.59119 9.1978 3.62998 7.64591 3.70472L7.74212 5.7024ZM2.43491 8.66391C2.26673 10.1643 2.125 11.7336 2.125 13.3438H4.125C4.125 11.8453 4.257 10.3629 4.42246 8.88669L2.43491 8.66391ZM2.125 13.3438C2.125 14.954 2.26673 16.5233 2.43491 18.0237L4.42246 17.8009C4.257 16.3247 4.125 14.8423 4.125 13.3438H2.125ZM22.565 8.66391C22.2649 5.98702 20.0863 3.83632 17.354 3.70472L17.2577 5.7024C18.9679 5.78477 20.382 7.14351 20.5774 8.88669L22.565 8.66391ZM17.354 22.9828C20.0863 22.8512 22.2649 20.7005 22.565 18.0237L20.5774 17.8009C20.382 19.544 18.9679 20.9028 17.2577 20.9852L17.354 22.9828ZM7.64591 3.70472C4.91352 3.83632 2.73495 5.98702 2.43491 8.66391L4.42246 8.88669C4.61785 7.14351 6.03193 5.78477 7.74212 5.7024L7.64591 3.70472ZM7.74212 20.9852C6.03193 20.9028 4.61785 19.544 4.42246 17.8009L2.43491 18.0237C2.73495 20.7005 4.91352 22.8512 7.64591 22.9828L7.74212 20.9852Z" fill="#454D61"/>
<path d="M3.57373 11.3095H21.5187" stroke="#454D61" stroke-width="2"/>
</svg>
