<svg width="16" height="16" viewBox="0 0 16 16" fill="none" xmlns="http://www.w3.org/2000/svg">
<path d="M6.45911 1.8584L6.45911 4.35354" stroke="#7D1BF7" stroke-width="1.33333" stroke-linecap="round"/>
<path d="M10.201 1.8584L10.201 4.35354" stroke="#7D1BF7" stroke-width="1.33333" stroke-linecap="round"/>
<path d="M14.3808 5.8502L13.7183 5.92446L14.3808 5.8502ZM2.28583 11.9415L1.62331 12.0158L2.28583 11.9415ZM8.33333 14.0642C7.20885 14.0642 6.17397 14.0389 5.16146 13.9901L5.09732 15.3219C6.13191 15.3717 7.1882 15.3976 8.33333 15.3976V14.0642ZM11.5052 13.9901C10.4927 14.0389 9.45781 14.0642 8.33333 14.0642V15.3976C9.47846 15.3976 10.5348 15.3717 11.5693 15.3219L11.5052 13.9901ZM15.0433 12.0158C15.1555 11.0155 15.25 9.96932 15.25 8.89585H13.9166C13.9166 9.89485 13.8286 10.8831 13.7183 11.8672L15.0433 12.0158ZM15.25 8.89585C15.25 7.82238 15.1555 6.7762 15.0433 5.77594L13.7183 5.92446C13.8286 6.90857 13.9166 7.89685 13.9166 8.89585H15.25ZM8.33333 3.72746C9.45781 3.72746 10.4927 3.75284 11.5052 3.8016L11.5693 2.46981C10.5348 2.41998 9.47846 2.39412 8.33333 2.39412V3.72746ZM5.16146 3.8016C6.17397 3.75284 7.20885 3.72746 8.33333 3.72746V2.39412C7.1882 2.39412 6.13191 2.41998 5.09731 2.46981L5.16146 3.8016ZM1.62331 5.77594C1.51119 6.7762 1.41671 7.82238 1.41671 8.89585H2.75004C2.75004 7.89685 2.83804 6.90857 2.94835 5.92446L1.62331 5.77594ZM1.41671 8.89585C1.41671 9.96932 1.51119 11.0155 1.62331 12.0158L2.94835 11.8672C2.83804 10.8831 2.75004 9.89485 2.75004 8.89585H1.41671ZM15.0433 5.77594C14.8433 3.99135 13.3909 2.55755 11.5693 2.46981L11.5052 3.8016C12.6453 3.85651 13.5881 4.76234 13.7183 5.92446L15.0433 5.77594ZM11.5693 15.3219C13.3909 15.2342 14.8433 13.8004 15.0433 12.0158L13.7183 11.8672C13.5881 13.0294 12.6453 13.9352 11.5052 13.9901L11.5693 15.3219ZM5.09731 2.46981C3.27572 2.55755 1.82334 3.99135 1.62331 5.77594L2.94835 5.92446C3.07861 4.76234 4.02133 3.85651 5.16146 3.8016L5.09731 2.46981ZM5.16146 13.9901C4.02133 13.9352 3.07861 13.0294 2.94835 11.8672L1.62331 12.0158C1.82334 13.8004 3.27572 15.2342 5.09732 15.3219L5.16146 13.9901Z" fill="#7D1BF7"/>
<path d="M2.38245 7.53955H14.3458" stroke="#7D1BF7" stroke-width="1.33333"/>
</svg>
