<svg width="24" height="24" viewBox="0 0 24 24" fill="none" xmlns="http://www.w3.org/2000/svg">
<path d="M5 8.35461H19.0001" stroke="#F56060" stroke-width="1.68002" stroke-linecap="round"/>
<path d="M6.96559 8.35461V7.51461C6.51969 7.51461 6.15149 7.863 6.12686 8.30822L6.96559 8.35461ZM17.0296 8.35461L17.8683 8.30822C17.8437 7.863 17.4755 7.51461 17.0296 7.51461V8.35461ZM17.1016 9.65679L16.2629 9.70318L17.1016 9.65679ZM6.96559 9.19462H17.0296V7.51461H6.96559V9.19462ZM14.5747 18.1601H9.42044V19.8401H14.5747V18.1601ZM16.1909 8.401L16.2629 9.70318L17.9403 9.6104L17.8683 8.30822L16.1909 8.401ZM7.73229 9.70318L7.80432 8.401L6.12686 8.30822L6.05484 9.6104L7.73229 9.70318ZM8.0742 17.0007C7.71202 14.5862 7.59746 12.141 7.73229 9.70318L6.05484 9.6104C5.91369 12.1625 6.03362 14.7223 6.41277 17.2499L8.0742 17.0007ZM16.2629 9.70318C16.3977 12.141 16.2832 14.5862 15.921 17.0007L17.5824 17.2499C17.9616 14.7223 18.0815 12.1625 17.9403 9.6104L16.2629 9.70318ZM9.42044 18.1601C8.7466 18.1601 8.17416 17.6671 8.0742 17.0007L6.41277 17.2499C6.63609 18.7387 7.915 19.8401 9.42044 19.8401V18.1601ZM14.5747 19.8401C16.0802 19.8401 17.3591 18.7387 17.5824 17.2499L15.921 17.0007C15.821 17.6671 15.2486 18.1601 14.5747 18.1601V19.8401Z" fill="#F56060"/>
<path d="M9.20215 8.35467V7.79556C9.20215 7.05413 9.49668 6.34307 10.0209 5.8188C10.5452 5.29453 11.2563 5 11.9977 5C12.7391 5 13.4502 5.29453 13.9745 5.8188C14.4987 6.34307 14.7933 7.05413 14.7933 7.79556V8.35467" stroke="#F56060" stroke-width="1.68002" stroke-linecap="round" stroke-linejoin="round"/>
<path d="M10.3203 11.349V15.9835" stroke="#F56060" stroke-width="1.68002" stroke-linecap="round" stroke-linejoin="round"/>
<path d="M13.6753 11.349V15.9835" stroke="#F56060" stroke-width="1.68002" stroke-linecap="round" stroke-linejoin="round"/>
</svg>
