<svg width="24" height="24" viewBox="0 0 24 24" fill="none" xmlns="http://www.w3.org/2000/svg">
<path d="M9.68872 2.78763L9.68872 6.53034" stroke="#454D61" stroke-width="2" stroke-linecap="round"/>
<path d="M15.3015 2.78763L15.3015 6.53034" stroke="#454D61" stroke-width="2" stroke-linecap="round"/>
<path d="M21.5714 17.9123L20.5777 17.8009L21.5714 17.9123ZM12.5002 21.0964C10.8135 21.0964 9.26113 21.0583 7.74237 20.9852L7.64615 22.9828C9.19804 23.0576 10.7825 23.0964 12.5002 23.0964V21.0964ZM17.258 20.9852C15.7392 21.0583 14.1869 21.0964 12.5002 21.0964V23.0964C14.2179 23.0964 15.8023 23.0576 17.3542 22.9828L17.258 20.9852ZM22.5652 18.0237C22.7334 16.5233 22.8751 14.954 22.8751 13.3438H20.8751C20.8751 14.8423 20.7431 16.3247 20.5777 17.8009L22.5652 18.0237ZM22.8751 13.3438C22.8751 11.7336 22.7334 10.1643 22.5652 8.66391L20.5777 8.88669C20.7431 10.3629 20.8751 11.8453 20.8751 13.3438H22.8751ZM12.5002 5.59119C14.1869 5.59119 15.7392 5.62926 17.258 5.7024L17.3542 3.70472C15.8023 3.62998 14.2179 3.59119 12.5002 3.59119V5.59119ZM7.74237 5.7024C9.26113 5.62926 10.8135 5.59119 12.5002 5.59119V3.59119C10.7825 3.59119 9.19804 3.62998 7.64616 3.70472L7.74237 5.7024ZM2.43515 8.66391C2.26697 10.1643 2.12524 11.7336 2.12524 13.3438H4.12524C4.12524 11.8453 4.25724 10.3629 4.4227 8.88669L2.43515 8.66391ZM2.12524 13.3438C2.12524 14.954 2.26697 16.5233 2.43515 18.0237L4.4227 17.8009C4.25724 16.3247 4.12524 14.8423 4.12524 13.3438H2.12524ZM22.5652 8.66391C22.2652 5.98702 20.0866 3.83632 17.3542 3.70472L17.258 5.7024C18.9682 5.78477 20.3823 7.14351 20.5777 8.88669L22.5652 8.66391ZM17.3542 22.9828C20.0866 22.8512 22.2652 20.7005 22.5652 18.0237L20.5777 17.8009C20.3823 19.544 18.9682 20.9028 17.258 20.9852L17.3542 22.9828ZM7.64616 3.70472C4.91376 3.83632 2.7352 5.98702 2.43515 8.66391L4.4227 8.88669C4.61809 7.14351 6.03218 5.78477 7.74237 5.7024L7.64616 3.70472ZM7.74237 20.9852C6.03217 20.9028 4.61809 19.544 4.4227 17.8009L2.43515 18.0237C2.7352 20.7005 4.91376 22.8512 7.64615 22.9828L7.74237 20.9852Z" fill="#454D61"/>
<path d="M3.57373 11.3095H21.5187" stroke="#454D61" stroke-width="2"/>
</svg>
