<svg width="33" height="32" viewBox="0 0 33 32" fill="none" xmlns="http://www.w3.org/2000/svg">
<path d="M20.8584 16.0167C23.4054 16.0167 25.4702 13.9519 25.4702 11.4048C25.4702 8.85775 23.4054 6.79294 20.8584 6.79294C18.3113 6.79294 16.2465 8.85775 16.2465 11.4048C16.2465 13.9519 18.3113 16.0167 20.8584 16.0167Z" fill="#D7E0FF" fill-opacity="0.5"/>
<path d="M20.8584 16.0169C23.4055 16.0169 25.4703 13.9521 25.4703 11.405C25.4703 9.43472 24.2347 7.75299 22.4961 7.09239" stroke="white" stroke-width="2" stroke-linecap="round" stroke-linejoin="round"/>
<path d="M27.1577 22.4954C29.4136 23.9979 27.8903 26.8958 25.1799 26.8958H20.0906L21.7172 24.8316C22.1378 23.1494 20.8761 21.8878 17.9323 20.544C18.6338 20.4245 19.3549 20.3623 20.0906 20.3623C22.7041 20.3623 25.1342 21.1477 27.1577 22.4954Z" fill="#D7E0FF" fill-opacity="0.5"/>
<path d="M13.0981 15.1026C15.8591 15.1026 18.0974 12.8644 18.0974 10.1034C18.0974 7.34239 15.8591 5.10416 13.0981 5.10416C10.3371 5.10416 8.09888 7.34239 8.09888 10.1034C8.09888 12.8644 10.3371 15.1026 13.0981 15.1026Z" fill="#D7E0FF" fill-opacity="0.5" stroke="white" stroke-width="2" stroke-linecap="round" stroke-linejoin="round"/>
<path d="M20.7555 22.1264C23.2009 23.7551 21.5497 26.8963 18.6115 26.8963H7.57805C4.63993 26.8963 2.98869 23.7551 5.43407 22.1264C7.62752 20.6655 10.2617 19.8141 13.0948 19.8141C15.9279 19.8141 18.5621 20.6655 20.7555 22.1264Z" stroke="white" stroke-width="2"/>
<path d="M18.1866 25.8961C17.6344 25.8961 17.1866 26.3438 17.1866 26.8961C17.1866 27.4484 17.6344 27.8961 18.1866 27.8961V25.8961ZM27.1578 22.4957L26.6035 23.328L26.6035 23.328L27.1578 22.4957ZM25.579 20.5005C25.0726 20.2801 24.4834 20.512 24.263 21.0184C24.0426 21.5248 24.2745 22.114 24.7809 22.3344L25.579 20.5005ZM18.1866 27.8961H25.1799V25.8961H18.1866V27.8961ZM25.1799 27.8961C26.8903 27.8961 28.3165 26.9768 28.9329 25.6919C29.2435 25.0443 29.3488 24.2944 29.1462 23.5534C28.942 22.8067 28.4486 22.154 27.7121 21.6634L26.6035 23.328C26.9949 23.5887 27.1571 23.8616 27.217 24.0809C27.2786 24.3059 27.2566 24.5621 27.1296 24.8268C26.8708 25.3665 26.18 25.8961 25.1799 25.8961V27.8961ZM24.7809 22.3344C25.4197 22.6124 26.0293 22.9456 26.6035 23.328L27.7121 21.6634C27.0405 21.2161 26.3271 20.8261 25.579 20.5005L24.7809 22.3344Z" fill="white"/>
</svg>
