<svg width="25" height="24" viewBox="0 0 25 24" fill="none" xmlns="http://www.w3.org/2000/svg">
<path d="M14.6161 2.88032L14.637 1.92598L14.6161 2.88032ZM8.43821 17.9853L8.37274 18.9377L8.43821 17.9853ZM19.9734 8.35779L19.0191 8.38184L19.9734 8.35779ZM8.43821 3.01461L8.50369 3.96692L8.43821 3.01461ZM19.0457 10.5C19.0457 12.2618 18.991 13.9804 18.8869 15.6379L20.7923 15.7575C20.8989 14.0596 20.9548 12.3011 20.9548 10.5H19.0457ZM8.50369 3.96692C9.92333 3.86932 11.2946 3.81803 13.0001 3.81803V1.9089C11.2515 1.9089 9.83652 1.96165 8.37274 2.06229L8.50369 3.96692ZM6.95456 10.5C6.95456 8.73819 7.0093 7.01959 7.11334 5.36205L5.20796 5.24246C5.10139 6.94035 5.04544 8.69883 5.04544 10.5H6.95456ZM7.11334 15.6379C7.0093 13.9804 6.95456 12.2618 6.95456 10.5H5.04544C5.04544 12.3011 5.10139 14.0596 5.20796 15.7575L7.11334 15.6379ZM13.0001 17.1819C11.2946 17.1819 9.92333 17.1306 8.50369 17.033L8.37274 18.9377C9.83652 19.0383 11.2515 19.091 13.0001 19.091V17.1819ZM17.4966 17.033C16.0769 17.1306 14.7056 17.1819 13.0001 17.1819V19.091C14.7488 19.091 16.1638 19.0383 17.6275 18.9377L17.4966 17.033ZM13.0001 3.81803C13.5643 3.81803 14.0914 3.82364 14.5953 3.83465L14.637 1.92598C14.1181 1.91464 13.577 1.9089 13.0001 1.9089V3.81803ZM19.0191 8.38184C19.0367 9.08003 19.0457 9.78648 19.0457 10.5H20.9548C20.9548 9.77047 20.9457 9.048 20.9277 8.33374L19.0191 8.38184ZM15.4424 4.12794C16.833 5.20118 17.6638 6.0824 18.7368 7.54425L20.2758 6.41457C19.1102 4.82662 18.1574 3.8118 16.6088 2.61659L15.4424 4.12794ZM14.5953 3.83465C14.909 3.84151 15.2058 3.94536 15.4424 4.12794L16.6088 2.61659C16.0377 2.1758 15.3433 1.94142 14.637 1.92598L14.5953 3.83465ZM5.20796 15.7575C5.31508 17.4642 6.67035 18.8206 8.37274 18.9377L8.50369 17.033C7.75313 16.9814 7.16024 16.3851 7.11334 15.6379L5.20796 15.7575ZM20.9277 8.33374C20.9104 7.64762 20.6877 6.97575 20.2758 6.41457L18.7368 7.54425C18.9122 7.78324 19.0114 8.07566 19.0191 8.38184L20.9277 8.33374ZM8.37274 2.06229C6.67035 2.17934 5.31508 3.53575 5.20796 5.24246L7.11334 5.36205C7.16024 4.61486 7.75313 4.01853 8.50369 3.96692L8.37274 2.06229ZM18.8869 15.6379C18.84 16.3851 18.2471 16.9814 17.4966 17.033L17.6275 18.9377C19.3299 18.8206 20.6852 17.4642 20.7923 15.7575L18.8869 15.6379Z" fill="white"/>
<path d="M10.4541 12.5682L12.7682 14.9546C13.8571 11.8266 14.764 10.454 16.8179 8.59088" stroke="white" stroke-width="1.90913" stroke-linecap="round" stroke-linejoin="round"/>
</svg>
