<svg width="24" height="24" viewBox="0 0 24 24" fill="none" xmlns="http://www.w3.org/2000/svg">
<path d="M7.13714 14.6532C8.60236 14.6532 9.79015 13.4654 9.79015 12.0002C9.79015 10.535 8.60236 9.34717 7.13714 9.34717C5.67192 9.34717 4.48413 10.535 4.48413 12.0002C4.48413 13.4654 5.67192 14.6532 7.13714 14.6532Z" stroke="#2CB4F6" stroke-width="1.86119" stroke-linecap="round" stroke-linejoin="round"/>
<path d="M16.3469 9.55114C17.8121 9.55114 18.9999 8.36335 18.9999 6.89813C18.9999 5.43291 17.8121 4.24512 16.3469 4.24512C14.8816 4.24512 13.6938 5.43291 13.6938 6.89813C13.6938 8.36335 14.8816 9.55114 16.3469 9.55114Z" stroke="#2CB4F6" stroke-width="1.86119" stroke-linecap="round" stroke-linejoin="round"/>
<path d="M16.3469 19.755C17.8121 19.755 18.9999 18.5672 18.9999 17.102C18.9999 15.6368 17.8121 14.449 16.3469 14.449C14.8816 14.449 13.6938 15.6368 13.6938 17.102C13.6938 18.5672 14.8816 19.755 16.3469 19.755Z" stroke="#2CB4F6" stroke-width="1.86119" stroke-linecap="round" stroke-linejoin="round"/>
<path d="M8.36719 9.67779C10.7898 8.31141 10.9368 8.2999 13.6938 7.52222" stroke="#2CB4F6" stroke-width="1.86119" stroke-linecap="round" stroke-linejoin="round"/>
<path d="M8.36719 14.3225C10.7898 15.6888 10.9368 15.7003 13.6938 16.478" stroke="#2CB4F6" stroke-width="1.86119" stroke-linecap="round" stroke-linejoin="round"/>
</svg>
