<svg width="25" height="24" viewBox="0 0 25 24" fill="none" xmlns="http://www.w3.org/2000/svg">
<path d="M6.72442 3.34174C5.6638 4.40235 4.92009 5.72062 4.5542 7.14942M18.4547 3.34174C19.5153 4.40235 20.259 5.72062 20.6249 7.14942" stroke="#454D61" stroke-width="2" stroke-linecap="round" stroke-linejoin="round"/>
<path d="M5.64638 15.8197L6.3009 15.0636C6.28153 15.0469 6.26152 15.0308 6.24092 15.0156L5.64638 15.8197ZM19.5901 15.8197L18.9955 15.0156C18.9749 15.0308 18.9549 15.0469 18.9355 15.0636L19.5901 15.8197ZM19.6124 13.2109L19.0173 14.0146L19.6124 13.2109ZM5.6241 13.2109L6.21911 14.0146L5.6241 13.2109ZM12.6182 3.37732C11.0721 3.37732 9.5894 3.9915 8.49616 5.08473L9.91037 6.49895C10.6285 5.78078 11.6026 5.37732 12.6182 5.37732V3.37732ZM8.49616 5.08473C7.40292 6.17798 6.78874 7.66073 6.78874 9.2068H8.78874C8.78874 8.19116 9.19221 7.21712 9.91037 6.49895L8.49616 5.08473ZM5.64638 15.8197C4.99185 16.5757 4.99274 16.5765 4.99364 16.5773C4.99394 16.5775 4.99484 16.5783 4.99545 16.5788C4.99667 16.5799 4.99791 16.5809 4.99916 16.582C5.00168 16.5841 5.00427 16.5863 5.00694 16.5885C5.01227 16.593 5.01792 16.5976 5.02389 16.6024C5.03582 16.612 5.04903 16.6222 5.06361 16.6331C5.09276 16.6548 5.12734 16.679 5.16804 16.7051C5.2494 16.7574 5.35522 16.8178 5.49109 16.8829C5.76229 17.0127 6.15599 17.1626 6.71974 17.3051C7.84379 17.5892 9.67393 17.8515 12.6182 17.8515V15.8515C9.78255 15.8515 8.12678 15.5979 7.20989 15.3661C6.75317 15.2506 6.48765 15.1426 6.35475 15.0789C6.28857 15.0473 6.25612 15.027 6.24972 15.0229C6.24654 15.0208 6.24987 15.0228 6.25874 15.0294C6.26317 15.0327 6.26899 15.0372 6.27606 15.0429C6.27959 15.0457 6.28344 15.0489 6.28759 15.0523C6.28966 15.054 6.29181 15.0559 6.29403 15.0577C6.29514 15.0587 6.29627 15.0596 6.29741 15.0606C6.29799 15.0611 6.29886 15.0619 6.29914 15.0621C6.30002 15.0629 6.3009 15.0636 5.64638 15.8197ZM6.78874 9.2068C6.78874 10.1911 6.61527 10.9243 6.38476 11.4664L8.22528 12.249C8.57186 11.4339 8.78874 10.4309 8.78874 9.2068H6.78874ZM5.02909 12.4072C4.26226 12.9749 3.98999 13.8439 4.02676 14.6052C4.0625 15.3455 4.39592 16.1387 5.05184 16.6237L6.24092 15.0156C6.15863 14.9548 6.03715 14.7721 6.02443 14.5088C6.01272 14.2664 6.09842 14.104 6.21911 14.0146L5.02909 12.4072ZM12.6182 5.37732C13.6339 5.37732 14.6079 5.78078 15.3261 6.49895L16.7403 5.08473C15.647 3.9915 14.1643 3.37732 12.6182 3.37732V5.37732ZM15.3261 6.49895C16.0442 7.21712 16.4477 8.19116 16.4477 9.2068H18.4477C18.4477 7.66073 17.8335 6.17797 16.7403 5.08473L15.3261 6.49895ZM19.5901 15.8197C18.9355 15.0636 18.9364 15.0629 18.9373 15.0621C18.9376 15.0619 18.9385 15.0611 18.939 15.0606C18.9402 15.0596 18.9413 15.0587 18.9424 15.0577C18.9446 15.0559 18.9468 15.054 18.9489 15.0523C18.953 15.0489 18.9569 15.0457 18.9604 15.0429C18.9675 15.0372 18.9733 15.0327 18.9777 15.0294C18.9866 15.0228 18.9899 15.0208 18.9867 15.0229C18.9803 15.027 18.9479 15.0473 18.8817 15.0789C18.7488 15.1426 18.4833 15.2506 18.0266 15.3661C17.1097 15.5979 15.4539 15.8515 12.6182 15.8515V17.8515C15.5625 17.8515 17.3927 17.5892 18.5167 17.3051C19.0805 17.1626 19.4742 17.0127 19.7454 16.8829C19.8812 16.8178 19.987 16.7574 20.0684 16.7051C20.1091 16.679 20.1437 16.6548 20.1728 16.6331C20.1874 16.6222 20.2006 16.612 20.2126 16.6024C20.2185 16.5976 20.2242 16.593 20.2295 16.5885C20.2322 16.5863 20.2348 16.5841 20.2373 16.582C20.2385 16.5809 20.2398 16.5799 20.241 16.5788C20.2416 16.5783 20.2425 16.5775 20.2428 16.5773C20.2437 16.5765 20.2446 16.5757 19.5901 15.8197ZM16.4477 9.2068C16.4477 10.4309 16.6646 11.4339 17.0112 12.249L18.8517 11.4664C18.6212 10.9243 18.4477 10.1911 18.4477 9.2068H16.4477ZM19.0173 14.0146C19.138 14.104 19.2237 14.2664 19.212 14.5088C19.1993 14.7721 19.0778 14.9548 18.9955 15.0156L20.1846 16.6237C20.8405 16.1387 21.1739 15.3455 21.2097 14.6052C21.2465 13.8439 20.9742 12.9749 20.2074 12.4072L19.0173 14.0146ZM17.0112 12.249C17.2746 12.8686 17.7525 13.2326 18.1185 13.4668C18.2981 13.5818 18.4956 13.6921 18.6384 13.7749C18.7962 13.8662 18.9165 13.94 19.0173 14.0146L20.2074 12.4072C20.0109 12.2618 19.8087 12.1414 19.6408 12.0442C19.4579 11.9383 19.3266 11.8655 19.1965 11.7822C18.943 11.62 18.8777 11.5276 18.8517 11.4664L17.0112 12.249ZM6.38476 11.4664C6.35873 11.5276 6.29342 11.62 6.03998 11.7822C5.90984 11.8655 5.77856 11.9383 5.5957 12.0442C5.42777 12.1414 5.22552 12.2618 5.02909 12.4072L6.21911 14.0146C6.31996 13.94 6.44029 13.8662 6.59805 13.7749C6.74086 13.6921 6.93838 13.5818 7.11795 13.4668C7.48396 13.2326 7.96182 12.8686 8.22528 12.249L6.38476 11.4664Z" fill="#454D61"/>
<path d="M11.7885 19.0927C11.5274 18.606 10.9213 18.4231 10.4346 18.6841C9.94788 18.9451 9.76494 19.5513 10.026 20.038L11.7885 19.0927ZM15.4552 20.038C15.7163 19.5513 15.5333 18.9451 15.0466 18.6841C14.5599 18.4231 13.9537 18.606 13.6927 19.0927L15.4552 20.038ZM12.7406 19.6632C12.3302 19.6632 11.9717 19.4344 11.7885 19.0927L10.026 20.038C10.5436 21.0032 11.5643 21.6632 12.7406 21.6632V19.6632ZM13.6927 19.0927C13.5095 19.4344 13.151 19.6632 12.7406 19.6632V21.6632C13.9169 21.6632 14.9376 21.0032 15.4552 20.038L13.6927 19.0927Z" fill="#454D61"/>
</svg>
