<svg width="24" height="24" viewBox="0 0 24 24" fill="none" xmlns="http://www.w3.org/2000/svg">
<path d="M9.68848 2.7876L9.68848 6.53031" stroke="#454D61" stroke-width="2" stroke-linecap="round"/>
<path d="M15.3018 2.7876L15.3018 6.53031" stroke="#454D61" stroke-width="2" stroke-linecap="round"/>
<path d="M21.5712 17.9121L20.5774 17.8008L21.5712 17.9121ZM12.4999 21.0963C10.8132 21.0963 9.26089 21.0582 7.74212 20.985L7.64591 22.9827C9.1978 23.0575 10.7822 23.0963 12.4999 23.0963V21.0963ZM17.2577 20.985C15.739 21.0582 14.1866 21.0963 12.4999 21.0963V23.0963C14.2176 23.0963 15.8021 23.0575 17.354 22.9827L17.2577 20.985ZM22.565 18.0235C22.7331 16.5231 22.8749 14.9539 22.8749 13.3437H20.8749C20.8749 14.8422 20.7429 16.3246 20.5774 17.8008L22.565 18.0235ZM22.8749 13.3437C22.8749 11.7334 22.7331 10.1642 22.565 8.66378L20.5774 8.88657C20.7429 10.3627 20.8749 11.8452 20.8749 13.3437H22.8749ZM12.4999 5.59106C14.1866 5.59106 15.739 5.62914 17.2577 5.70228L17.354 3.7046C15.8021 3.62986 14.2176 3.59106 12.4999 3.59106V5.59106ZM7.74212 5.70228C9.26089 5.62914 10.8132 5.59106 12.4999 5.59106V3.59106C10.7822 3.59106 9.1978 3.62986 7.64591 3.7046L7.74212 5.70228ZM2.43491 8.66378C2.26673 10.1642 2.125 11.7334 2.125 13.3437H4.125C4.125 11.8452 4.257 10.3627 4.42246 8.88657L2.43491 8.66378ZM2.125 13.3437C2.125 14.9539 2.26673 16.5231 2.43491 18.0235L4.42246 17.8008C4.257 16.3246 4.125 14.8422 4.125 13.3437H2.125ZM22.565 8.66378C22.2649 5.9869 20.0863 3.8362 17.354 3.7046L17.2577 5.70228C18.9679 5.78465 20.382 7.14339 20.5774 8.88657L22.565 8.66378ZM17.354 22.9827C20.0863 22.8511 22.2649 20.7004 22.565 18.0235L20.5774 17.8008C20.382 19.5439 18.9679 20.9027 17.2577 20.985L17.354 22.9827ZM7.64591 3.7046C4.91352 3.8362 2.73495 5.9869 2.43491 8.66378L4.42246 8.88657C4.61785 7.14339 6.03193 5.78465 7.74212 5.70228L7.64591 3.7046ZM7.74212 20.985C6.03193 20.9027 4.61785 19.5439 4.42246 17.8008L2.43491 18.0235C2.73495 20.7004 4.91352 22.8511 7.64591 22.9827L7.74212 20.985Z" fill="#454D61"/>
<path d="M3.57324 11.3096H21.5182" stroke="#454D61" stroke-width="2"/>
</svg>
