<svg width="33" height="32" viewBox="0 0 33 32" fill="none" xmlns="http://www.w3.org/2000/svg">
<path d="M11.8348 3.71683L11.8348 8.70711" stroke="white" stroke-width="2" stroke-linecap="round"/>
<path d="M20.6519 3.71683L20.6519 8.70711" stroke="white" stroke-width="2" stroke-linecap="round"/>
<path d="M27.3899 15.2232L5.11027 15.2232L5.42301 7.29359L16.1187 6.51783L27.3899 7.29359L27.3899 15.2232Z" fill="#D7E0FF" fill-opacity="0.5"/>
<path d="M27.8612 11.2324L26.8675 11.3438L27.8612 11.2324ZM27.8612 22.9277L26.8675 22.8163L27.8612 22.9277ZM10.0985 28.1395L10.0504 29.1383L10.0985 28.1395ZM4.63884 22.9277L3.64506 23.0391L4.63884 22.9277ZM16.25 27.2833C14.0867 27.2833 12.0952 27.2345 10.1466 27.1407L10.0504 29.1383C12.0321 29.2338 14.0557 29.2833 16.25 29.2833V27.2833ZM22.3535 27.1407C20.4048 27.2345 18.4134 27.2833 16.25 27.2833V29.2833C18.4444 29.2833 20.4679 29.2338 22.4497 29.1383L22.3535 27.1407ZM28.855 23.0391C29.0699 21.122 29.25 19.1255 29.25 17.08H27.25C27.25 19.0137 27.0796 20.9234 26.8675 22.8163L28.855 23.0391ZM29.25 17.08C29.25 15.0346 29.0699 13.0381 28.855 11.121L26.8675 11.3438C27.0796 13.2366 27.25 15.1463 27.25 17.08H29.25ZM16.25 6.87671C18.4134 6.87671 20.4049 6.92554 22.3535 7.01939L22.4497 5.02171C20.4679 4.92626 18.4444 4.87671 16.25 4.87671V6.87671ZM10.1466 7.01939C12.0952 6.92554 14.0867 6.87671 16.25 6.87671V4.87671C14.0557 4.87671 12.0321 4.92626 10.0504 5.02171L10.1466 7.01939ZM3.64506 11.121C3.43017 13.0381 3.25012 15.0346 3.25012 17.08H5.25012C5.25012 15.1463 5.42044 13.2366 5.63261 11.3438L3.64506 11.121ZM3.25012 17.08C3.25012 19.1255 3.43017 21.122 3.64506 23.0391L5.63261 22.8163C5.42044 20.9234 5.25012 19.0137 5.25012 17.08H3.25012ZM28.855 11.121C28.4856 7.82529 25.8041 5.18326 22.4497 5.02171L22.3535 7.01939C24.6857 7.13171 26.6027 8.98178 26.8675 11.3438L28.855 11.121ZM22.4497 29.1383C25.8041 28.9768 28.4856 26.3348 28.855 23.0391L26.8675 22.8163C26.6027 25.1783 24.6857 27.0283 22.3535 27.1407L22.4497 29.1383ZM10.0504 5.02171C6.696 5.18326 4.01447 7.82529 3.64506 11.121L5.63261 11.3438C5.89736 8.98178 7.81442 7.13171 10.1466 7.01939L10.0504 5.02171ZM10.1466 27.1407C7.81442 27.0283 5.89736 25.1783 5.63261 22.8163L3.64506 23.0391C4.01447 26.3348 6.696 28.9768 10.0504 29.1383L10.1466 27.1407Z" fill="white"/>
<path d="M4.82434 14.4761H27.7939" stroke="white" stroke-width="2"/>
</svg>
