<svg width="25" height="24" viewBox="0 0 25 24" fill="none" xmlns="http://www.w3.org/2000/svg">
<path d="M6.72454 3.34174C5.66393 4.40235 4.92021 5.72062 4.55432 7.14942M18.4548 3.34174C19.5154 4.40235 20.2591 5.72062 20.625 7.14942" stroke="#454D61" stroke-width="2" stroke-linecap="round" stroke-linejoin="round"/>
<path d="M5.64626 15.8197L6.30078 15.0636C6.28141 15.0469 6.2614 15.0308 6.2408 15.0156L5.64626 15.8197ZM19.5899 15.8197L18.9954 15.0156C18.9748 15.0308 18.9548 15.0469 18.9354 15.0636L19.5899 15.8197ZM19.6122 13.2109L19.0172 14.0146L19.6122 13.2109ZM5.62398 13.2109L6.21898 14.0146L5.62398 13.2109ZM12.6181 3.37732C11.072 3.37732 9.58928 3.9915 8.49604 5.08473L9.91025 6.49895C10.6284 5.78078 11.6025 5.37732 12.6181 5.37732V3.37732ZM8.49604 5.08473C7.4028 6.17798 6.78862 7.66073 6.78862 9.2068H8.78862C8.78862 8.19116 9.19208 7.21712 9.91025 6.49895L8.49604 5.08473ZM5.64626 15.8197C4.99173 16.5757 4.99262 16.5765 4.99351 16.5773C4.99382 16.5775 4.99472 16.5783 4.99533 16.5788C4.99655 16.5799 4.99779 16.5809 4.99904 16.582C5.00156 16.5841 5.00415 16.5863 5.00682 16.5885C5.01215 16.593 5.0178 16.5976 5.02376 16.6024C5.0357 16.612 5.04891 16.6222 5.06349 16.6331C5.09264 16.6548 5.12722 16.679 5.16791 16.7051C5.24928 16.7574 5.35509 16.8178 5.49097 16.8829C5.76217 17.0127 6.15587 17.1626 6.71961 17.3051C7.84366 17.5892 9.67381 17.8515 12.6181 17.8515V15.8515C9.78243 15.8515 8.12666 15.5979 7.20977 15.3661C6.75305 15.2506 6.48753 15.1426 6.35463 15.0789C6.28845 15.0473 6.256 15.027 6.2496 15.0229C6.24642 15.0208 6.24975 15.0228 6.25862 15.0294C6.26305 15.0327 6.26887 15.0372 6.27594 15.0429C6.27947 15.0457 6.28332 15.0489 6.28747 15.0523C6.28954 15.054 6.29169 15.0559 6.29391 15.0577C6.29502 15.0587 6.29614 15.0596 6.29729 15.0606C6.29786 15.0611 6.29874 15.0619 6.29902 15.0621C6.2999 15.0629 6.30078 15.0636 5.64626 15.8197ZM6.78862 9.2068C6.78862 10.1911 6.61515 10.9243 6.38464 11.4664L8.22515 12.249C8.57174 11.4339 8.78862 10.4309 8.78862 9.2068H6.78862ZM5.02897 12.4072C4.26214 12.9749 3.98987 13.8439 4.02663 14.6052C4.06238 15.3455 4.3958 16.1387 5.05171 16.6237L6.2408 15.0156C6.1585 14.9548 6.03702 14.7721 6.02431 14.5088C6.0126 14.2664 6.0983 14.104 6.21898 14.0146L5.02897 12.4072ZM12.6181 5.37732C13.6337 5.37732 14.6078 5.78078 15.326 6.49895L16.7402 5.08473C15.6469 3.9915 14.1642 3.37732 12.6181 3.37732V5.37732ZM15.326 6.49895C16.0441 7.21712 16.4476 8.19116 16.4476 9.2068H18.4476C18.4476 7.66073 17.8334 6.17797 16.7402 5.08473L15.326 6.49895ZM19.5899 15.8197C18.9354 15.0636 18.9363 15.0629 18.9372 15.0621C18.9375 15.0619 18.9383 15.0611 18.9389 15.0606C18.9401 15.0596 18.9412 15.0587 18.9423 15.0577C18.9445 15.0559 18.9467 15.054 18.9487 15.0523C18.9529 15.0489 18.9567 15.0457 18.9603 15.0429C18.9673 15.0372 18.9732 15.0327 18.9776 15.0294C18.9865 15.0228 18.9898 15.0208 18.9866 15.0229C18.9802 15.027 18.9478 15.0473 18.8816 15.0789C18.7487 15.1426 18.4832 15.2506 18.0264 15.3661C17.1095 15.5979 15.4538 15.8515 12.6181 15.8515V17.8515C15.5624 17.8515 17.3925 17.5892 18.5166 17.3051C19.0803 17.1626 19.474 17.0127 19.7452 16.8829C19.8811 16.8178 19.9869 16.7574 20.0683 16.7051C20.109 16.679 20.1436 16.6548 20.1727 16.6331C20.1873 16.6222 20.2005 16.612 20.2124 16.6024C20.2184 16.5976 20.2241 16.593 20.2294 16.5885C20.2321 16.5863 20.2346 16.5841 20.2372 16.582C20.2384 16.5809 20.2397 16.5799 20.2409 16.5788C20.2415 16.5783 20.2424 16.5775 20.2427 16.5773C20.2436 16.5765 20.2445 16.5757 19.5899 15.8197ZM16.4476 9.2068C16.4476 10.4309 16.6645 11.4339 17.0111 12.249L18.8516 11.4664C18.6211 10.9243 18.4476 10.1911 18.4476 9.2068H16.4476ZM19.0172 14.0146C19.1379 14.104 19.2236 14.2664 19.2119 14.5088C19.1992 14.7721 19.0777 14.9548 18.9954 15.0156L20.1845 16.6237C20.8404 16.1387 21.1738 15.3455 21.2096 14.6052C21.2463 13.8439 20.9741 12.9749 20.2072 12.4072L19.0172 14.0146ZM17.0111 12.249C17.2745 12.8686 17.7524 13.2326 18.1184 13.4668C18.2979 13.5818 18.4955 13.6921 18.6383 13.7749C18.796 13.8662 18.9164 13.94 19.0172 14.0146L20.2072 12.4072C20.0108 12.2618 19.8086 12.1414 19.6406 12.0442C19.4578 11.9383 19.3265 11.8655 19.1963 11.7822C18.9429 11.62 18.8776 11.5276 18.8516 11.4664L17.0111 12.249ZM6.38464 11.4664C6.35861 11.5276 6.2933 11.62 6.03986 11.7822C5.90971 11.8655 5.77844 11.9383 5.59557 12.0442C5.42765 12.1414 5.2254 12.2618 5.02897 12.4072L6.21898 14.0146C6.31984 13.94 6.44017 13.8662 6.59792 13.7749C6.74074 13.6921 6.93826 13.5818 7.11783 13.4668C7.48384 13.2326 7.9617 12.8686 8.22515 12.249L6.38464 11.4664Z" fill="#454D61"/>
<path d="M11.7886 19.0927C11.5276 18.606 10.9214 18.4231 10.4347 18.6841C9.948 18.9451 9.76506 19.5513 10.0261 20.038L11.7886 19.0927ZM15.4553 20.038C15.7164 19.5513 15.5334 18.9451 15.0467 18.6841C14.56 18.4231 13.9539 18.606 13.6928 19.0927L15.4553 20.038ZM12.7407 19.6632C12.3303 19.6632 11.9719 19.4344 11.7886 19.0927L10.0261 20.038C10.5437 21.0032 11.5644 21.6632 12.7407 21.6632V19.6632ZM13.6928 19.0927C13.5096 19.4344 13.1511 19.6632 12.7407 19.6632V21.6632C13.917 21.6632 14.9377 21.0032 15.4553 20.038L13.6928 19.0927Z" fill="#454D61"/>
</svg>
