<svg width="25" height="24" viewBox="0 0 25 24" fill="none" xmlns="http://www.w3.org/2000/svg">
<path d="M2.99259 13.5119C2.63198 13.9302 2.67875 14.5616 3.09706 14.9222C3.51537 15.2828 4.1468 15.2361 4.50741 14.8178L2.99259 13.5119ZM21.2426 14.8178C21.6032 15.2361 22.2346 15.2828 22.6529 14.9222C23.0712 14.5616 23.118 13.9302 22.7574 13.5119L21.2426 14.8178ZM13.9923 4.87594L13.2349 5.52888L13.9923 4.87594ZM4.50741 14.8178L12.5151 5.52888L11.0002 4.22301L2.99259 13.5119L4.50741 14.8178ZM13.2349 5.52888L21.2426 14.8178L22.7574 13.5119L14.7497 4.22301L13.2349 5.52888ZM12.5151 5.52888C12.7046 5.30898 13.0453 5.30898 13.2349 5.52888L14.7497 4.22301C13.7623 3.07761 11.9877 3.07761 11.0002 4.22301L12.5151 5.52888Z" fill="#2CB4F6"/>
<path d="M6.59839 11.0106L5.83959 10.3593C5.71498 10.5044 5.63463 10.6823 5.60808 10.8718L6.59839 11.0106ZM19.3646 11.0106L20.3549 10.8718C20.3284 10.6823 20.248 10.5044 20.1234 10.3593L19.3646 11.0106ZM19.6653 13.1554L18.6749 13.2943L19.6653 13.1554ZM17.648 19.6758H8.315V21.6758H17.648V19.6758ZM7.3572 11.6619L12.6209 5.52944L11.1033 4.22681L5.83959 10.3593L7.3572 11.6619ZM13.3421 5.52944L18.6058 11.6619L20.1234 10.3593L14.8597 4.22681L13.3421 5.52944ZM18.3743 11.1494L18.6749 13.2943L20.6556 13.0166L20.3549 10.8718L18.3743 11.1494ZM7.28806 13.2943L7.58871 11.1494L5.60808 10.8718L5.30742 13.0166L7.28806 13.2943ZM7.32548 18.827C7.04327 16.9945 7.03067 15.1305 7.28806 13.2943L5.30742 13.0166C5.02295 15.046 5.03689 17.1061 5.34878 19.1314L7.32548 18.827ZM18.6749 13.2943C18.9323 15.1305 18.9197 16.9945 18.6375 18.827L20.6142 19.1314C20.9261 17.1061 20.9401 15.046 20.6556 13.0166L18.6749 13.2943ZM12.6209 5.52944C12.8105 5.30851 13.1525 5.30851 13.3421 5.52944L14.8597 4.22681C13.872 3.07605 12.091 3.07605 11.1033 4.22681L12.6209 5.52944ZM8.315 19.6758C7.8209 19.6758 7.40068 19.3154 7.32548 18.827L5.34878 19.1314C5.57421 20.5953 6.83387 21.6758 8.315 21.6758V19.6758ZM17.648 21.6758C19.1291 21.6758 20.3888 20.5953 20.6142 19.1314L18.6375 18.827C18.5623 19.3154 18.1421 19.6758 17.648 19.6758V21.6758Z" fill="#2CB4F6"/>
<path d="M12.8749 13.6084C14.2195 13.6084 15.3096 14.6985 15.3096 16.0431V20.4814H10.4402V16.0431C10.4402 14.6985 11.5302 13.6084 12.8749 13.6084Z" fill="white" stroke="#2CB4F6" stroke-width="2" stroke-linecap="round" stroke-linejoin="round"/>
</svg>
