<svg width="24" height="24" viewBox="0 0 24 24" fill="none" xmlns="http://www.w3.org/2000/svg">
<path d="M15.0826 20.347L15.0471 19.3476L15.0826 20.347ZM8.91745 20.347L8.88199 21.3464L8.91745 20.347ZM12 19.4C10.9226 19.4 9.92433 19.3821 8.95292 19.3476L8.88199 21.3464C9.87807 21.3817 10.9 21.4 12 21.4V19.4ZM15.0471 19.3476C14.0757 19.3821 13.0774 19.4 12 19.4V21.4C13.1 21.4 14.122 21.3817 15.118 21.3464L15.0471 19.3476ZM19.8647 16.9592C19.9435 16.2642 20 15.5415 20 14.8H18C18 15.4418 17.951 16.0848 17.8774 16.734L19.8647 16.9592ZM20 14.8C20 14.0585 19.9435 13.3358 19.8647 12.6408L17.8774 12.8661C17.951 13.5152 18 14.1582 18 14.8H20ZM12 10.2C13.0774 10.2 14.0757 10.2179 15.0471 10.2524L15.118 8.25362C14.122 8.21828 13.1 8.20004 12 8.20004V10.2ZM8.95292 10.2524C9.92433 10.2179 10.9226 10.2 12 10.2V8.20004C10.9 8.20004 9.87807 8.21828 8.88199 8.25362L8.95292 10.2524ZM4.13535 12.6408C4.05658 13.3358 4.00006 14.0585 4.00006 14.8H6.00006C6.00006 14.1582 6.04904 13.5152 6.12263 12.8661L4.13535 12.6408ZM4.00006 14.8C4.00006 15.5415 4.05658 16.2642 4.13535 16.9592L6.12263 16.734C6.04904 16.0848 6.00006 15.4418 6.00006 14.8H4.00006ZM19.8647 12.6408C19.5901 10.2186 17.5503 8.33993 15.118 8.25362L15.0471 10.2524C16.4935 10.3037 17.7148 11.4318 17.8774 12.8661L19.8647 12.6408ZM15.118 21.3464C17.5503 21.2601 19.5901 19.3814 19.8647 16.9592L17.8774 16.734C17.7148 18.1682 16.4935 19.2963 15.0471 19.3476L15.118 21.3464ZM8.88199 8.25362C6.44972 8.33993 4.40992 10.2186 4.13535 12.6408L6.12263 12.8661C6.2852 11.4318 7.50651 10.3037 8.95292 10.2524L8.88199 8.25362ZM8.95292 19.3476C7.50651 19.2963 6.2852 18.1682 6.12263 16.734L4.13535 16.9592C4.40992 19.3814 6.44972 21.2601 8.88199 21.3464L8.95292 19.3476Z" fill="#AFB3C3"/>
<path d="M15.92 9.2V7.52001C15.92 6.48037 15.507 5.48331 14.7719 4.74817C14.0368 4.01303 13.0397 3.60004 12.0001 3.60004C10.9604 3.60004 9.96335 4.01303 9.22821 4.74817C8.49307 5.48331 8.08008 6.48037 8.08008 7.52001V9.2" stroke="#AFB3C3" stroke-width="2" stroke-linecap="round" stroke-linejoin="round"/>
<circle cx="12" cy="14.8" r="1.67999" fill="#AFB3C3"/>
</svg>
