<svg width="24" height="24" viewBox="0 0 24 24" fill="none" xmlns="http://www.w3.org/2000/svg">
<path d="M16.2077 4.28357L16.314 3.32947L16.2077 4.28357ZM16.2077 19.7164L16.314 20.6705L16.2077 19.7164ZM11.9998 19.04C10.6218 19.04 9.25912 18.914 7.89834 18.7623L7.68564 20.6705C9.06293 20.824 10.5116 20.9601 11.9998 20.9601V19.04ZM16.1013 18.7623C14.7405 18.914 13.3779 19.04 11.9998 19.04V20.9601C13.488 20.9601 14.9367 20.824 16.314 20.6705L16.1013 18.7623ZM20.6858 16.2859C20.8325 14.9153 20.9599 13.4771 20.9599 12H19.0399C19.0399 13.3726 18.9214 14.7295 18.7767 16.0816L20.6858 16.2859ZM20.9599 12C20.9599 10.5229 20.8325 9.08461 20.6858 7.7141L18.7767 7.91835C18.9214 9.27045 19.0399 10.6273 19.0399 12H20.9599ZM11.9998 4.95992C13.3779 4.95992 14.7405 5.08599 16.1013 5.23767L16.314 3.32947C14.9367 3.17595 13.488 3.0399 11.9998 3.0399V4.95992ZM7.89834 5.23767C9.25912 5.08599 10.6218 4.95992 11.9998 4.95992V3.0399C10.5116 3.0399 9.06293 3.17595 7.68564 3.32947L7.89834 5.23767ZM3.31383 7.7141C3.1672 9.08461 3.03975 10.5229 3.03975 12H4.95976C4.95976 10.6273 5.07829 9.27045 5.22295 7.91835L3.31383 7.7141ZM3.03975 12C3.03975 13.4771 3.1672 14.9153 3.31383 16.2859L5.22295 16.0816C5.07829 14.7295 4.95976 13.3726 4.95976 12H3.03975ZM20.6858 7.7141C20.4404 5.42013 18.6026 3.58457 16.314 3.32947L16.1013 5.23767C17.499 5.39347 18.6275 6.52423 18.7767 7.91835L20.6858 7.7141ZM16.314 20.6705C18.6026 20.4154 20.4404 18.5798 20.6858 16.2859L18.7767 16.0816C18.6275 17.4757 17.499 18.6065 16.1013 18.7623L16.314 20.6705ZM7.68564 3.32947C5.39705 3.58457 3.55925 5.42013 3.31383 7.7141L5.22295 7.91835C5.3721 6.52422 6.50062 5.39347 7.89834 5.23767L7.68564 3.32947ZM7.89834 18.7623C6.50062 18.6065 5.3721 17.4757 5.22295 16.0816L3.31383 16.2859C3.55925 18.5798 5.39705 20.4154 7.68564 20.6705L7.89834 18.7623Z" fill="#2CB4F6"/>
<path d="M12.96 8.79996C12.96 8.26976 12.5302 7.83995 12 7.83995C11.4698 7.83995 11.04 8.26976 11.04 8.79996L12.96 8.79996ZM11.04 15.2C11.04 15.7302 11.4698 16.16 12 16.16C12.5302 16.16 12.96 15.7302 12.96 15.2L11.04 15.2ZM11.04 8.79996L11.04 15.2L12.96 15.2L12.96 8.79996L11.04 8.79996Z" fill="#2CB4F6"/>
<path d="M15.2 12.96C15.7301 12.96 16.16 12.5302 16.16 12C16.16 11.4698 15.7301 11.04 15.2 11.04L15.2 12.96ZM8.7999 11.04C8.2697 11.04 7.83989 11.4698 7.83989 12C7.83989 12.5302 8.2697 12.96 8.7999 12.96L8.7999 11.04ZM15.2 11.04L8.7999 11.04L8.7999 12.96L15.2 12.96L15.2 11.04Z" fill="#2CB4F6"/>
</svg>
