<svg width="25" height="24" viewBox="0 0 25 24" fill="none" xmlns="http://www.w3.org/2000/svg">
<path d="M2.99259 13.512C2.63198 13.9303 2.67875 14.5617 3.09706 14.9224C3.51537 15.283 4.1468 15.2362 4.50741 14.8179L2.99259 13.512ZM21.2426 14.8179C21.6032 15.2362 22.2346 15.283 22.6529 14.9224C23.0712 14.5617 23.118 13.9303 22.7574 13.512L21.2426 14.8179ZM13.9923 4.87607L13.2349 5.52901L13.9923 4.87607ZM4.50741 14.8179L12.5151 5.52901L11.0002 4.22313L2.99259 13.512L4.50741 14.8179ZM13.2349 5.52901L21.2426 14.8179L22.7574 13.512L14.7497 4.22313L13.2349 5.52901ZM12.5151 5.52901C12.7046 5.30911 13.0453 5.30911 13.2349 5.52901L14.7497 4.22313C13.7623 3.07773 11.9877 3.07773 11.0002 4.22313L12.5151 5.52901Z" fill="#2CB4F6"/>
<path d="M6.59827 11.0106L5.83946 10.3593C5.71486 10.5045 5.63451 10.6824 5.60795 10.8718L6.59827 11.0106ZM19.3645 11.0106L20.3548 10.8718C20.3282 10.6824 20.2479 10.5045 20.1233 10.3593L19.3645 11.0106ZM19.6651 13.1555L18.6748 13.2943L19.6651 13.1555ZM17.6479 19.6759H8.31488V21.6759H17.6479V19.6759ZM7.35708 11.6619L12.6208 5.5295L11.1032 4.22687L5.83946 10.3593L7.35708 11.6619ZM13.342 5.5295L18.6057 11.6619L20.1233 10.3593L14.8596 4.22687L13.342 5.5295ZM18.3742 11.1494L18.6748 13.2943L20.6555 13.0167L20.3548 10.8718L18.3742 11.1494ZM7.28793 13.2943L7.58859 11.1494L5.60795 10.8718L5.3073 13.0167L7.28793 13.2943ZM7.32536 18.8271C7.04315 16.9945 7.03054 15.1305 7.28793 13.2943L5.3073 13.0167C5.02283 15.0461 5.03677 17.1061 5.34866 19.1315L7.32536 18.8271ZM18.6748 13.2943C18.9322 15.1305 18.9196 16.9945 18.6374 18.8271L20.6141 19.1315C20.926 17.1061 20.9399 15.0461 20.6555 13.0167L18.6748 13.2943ZM12.6208 5.5295C12.8104 5.30857 13.1523 5.30857 13.342 5.5295L14.8596 4.22687C13.8718 3.07611 12.0909 3.07611 11.1032 4.22687L12.6208 5.5295ZM8.31488 19.6759C7.82078 19.6759 7.40056 19.3154 7.32536 18.8271L5.34866 19.1315C5.57408 20.5954 6.83375 21.6759 8.31488 21.6759V19.6759ZM17.6479 21.6759C19.129 21.6759 20.3887 20.5954 20.6141 19.1315L18.6374 18.8271C18.5622 19.3154 18.142 19.6759 17.6479 19.6759V21.6759Z" fill="#2CB4F6"/>
<path d="M12.875 13.6084C14.2197 13.6084 15.3097 14.6985 15.3097 16.0431V20.4814H10.4403V16.0431C10.4403 14.6985 11.5304 13.6084 12.875 13.6084Z" fill="white" stroke="#2CB4F6" stroke-width="2" stroke-linecap="round" stroke-linejoin="round"/>
</svg>
