<svg width="13" height="26" viewBox="0 0 13 26" fill="none" xmlns="http://www.w3.org/2000/svg">
<path d="M14.9421 7.87805C17.0546 7.87805 18.7672 6.16396 18.7672 4.04953C18.7672 1.9351 17.0546 0.221008 14.9421 0.221008C12.8295 0.221008 11.1169 1.9351 11.1169 4.04953C11.1169 6.16396 12.8295 7.87805 14.9421 7.87805Z" fill="white"/>
<path d="M21.499 10.2024V17.9956C21.4998 19.4398 21.0243 20.844 20.1463 21.9901C19.2683 23.1362 18.0368 23.9602 16.6431 24.3341C15.2493 24.7081 13.7712 24.6112 12.4382 24.0584C11.1051 23.5056 9.99156 22.5279 9.27043 21.2769C9.11272 21.0146 8.9757 20.7403 8.86063 20.4566C8.75335 20.1891 8.66302 19.9151 8.59016 19.6363C8.45503 19.0998 8.38622 18.5488 8.38526 17.9956V10.2024C8.38504 10.0407 8.41669 9.88061 8.4784 9.73122C8.54011 9.58183 8.63066 9.4461 8.74486 9.33179C8.85907 9.21748 8.99468 9.12685 9.14394 9.06509C9.2932 9.00333 9.45316 8.97165 9.61467 8.97186H20.2696C20.4311 8.97165 20.5911 9.00333 20.7403 9.06509C20.8896 9.12685 21.0252 9.21748 21.1394 9.33179C21.2536 9.4461 21.3442 9.58183 21.4059 9.73122C21.4676 9.88061 21.4992 10.0407 21.499 10.2024Z" fill="white" stroke="#4B53BC" stroke-width="2"/>
<path d="M2.10157 5.69043H13.0303C13.32 5.69043 13.5979 5.80564 13.8028 6.01071C14.0077 6.21579 14.1228 6.49392 14.1228 6.78394V17.7223C14.1228 18.0124 14.0077 18.2905 13.8028 18.4956C13.5979 18.7006 13.32 18.8159 13.0303 18.8159H2.10157C1.81181 18.8159 1.53392 18.7006 1.32903 18.4956C1.12414 18.2905 1.00903 18.0124 1.00903 17.7223L1.00903 6.78394C1.00903 6.49392 1.12414 6.21579 1.32903 6.01071C1.53392 5.80564 1.81181 5.69043 2.10157 5.69043Z" fill="white" stroke="#4B53BC" stroke-width="2"/>
<path d="M10.8281 9.77165H8.37742V16.3508H6.76934V9.77165H4.30396V8.15558H10.8281V9.77165Z" fill="#4B53BC" stroke="white"/>
</svg>
