<svg width="212" height="215" viewBox="0 0 212 215" fill="none" xmlns="http://www.w3.org/2000/svg">
<mask id="mask0_414_2832" style="mask-type:alpha" maskUnits="userSpaceOnUse" x="0" y="0" width="212" height="215">
<path d="M130.292 3.32469C114.186 -2.89533 94.4841 0.0527945 74.1575 8.50803C30 26.8762 0.732914 113.437 0.732918 146.574C0.732922 183.376 29.1553 240.109 130.292 201.47C237.69 160.438 216.269 93.7976 193.295 58.221C170.32 22.6444 150.424 11.0997 130.292 3.32469Z" fill="white"/>
</mask>
<g mask="url(#mask0_414_2832)">
<path fill-rule="evenodd" clip-rule="evenodd" d="M97.9785 27.6241C77.0767 30.7207 60.977 45.7848 59.9398 63.2168C59.6108 68.7617 59.8696 70.3952 61.5991 73.6574C67.1564 84.1405 81.0839 88.978 105.785 89.0051C126.327 89.0272 138.521 86.1166 146.12 79.3792C151.125 74.9409 152.633 71.4615 152.595 64.4299C152.501 46.7348 136.704 31.2854 115.221 27.8823C107.437 26.6487 104.824 26.6094 97.9785 27.6241ZM97.8204 34.9803C84.0853 37.377 72.074 47.2044 68.6548 58.8441C66.1461 67.3855 68.6992 73.3361 76.486 77.0965C91.9276 84.5536 126.813 83.652 138.89 75.4843C143.664 72.255 145.108 69.1289 144.569 63.1799C143.678 53.3361 135.673 42.8538 125.55 38.2745C117.65 34.7008 106.805 33.4124 97.8204 34.9803ZM81.3223 59.4613C76.4139 61.4374 74.005 64.4569 75.4397 66.8339C76.7328 68.9772 79.5901 68.9985 82.6155 66.8888C83.9087 65.9872 85.6853 65.2495 86.5653 65.2495C87.4453 65.2495 89.222 65.9872 90.5152 66.8888C94.2644 69.5034 98.5821 68.6207 98.5821 65.2389C98.5821 63.3086 93.8512 59.6047 90.199 58.676C86.0625 57.6244 85.836 57.6441 81.3223 59.4613ZM120.795 59.1432C116.139 60.9735 114.296 62.7365 114.296 65.361C114.296 68.565 117.807 69.3412 121.565 66.9691C124.954 64.8282 126.364 64.8135 129.339 66.8888C133.55 69.8264 138.234 68.2191 137.07 64.2356C135.797 59.8776 126.403 56.9384 120.795 59.1432ZM54.2263 92.6926C53.3315 93.6491 53.3232 95.699 54.1884 102.323C57.5208 127.844 63.9359 149.484 73.2055 166.475C81.1717 181.076 89.7886 189.18 100.316 191.972C109.749 194.473 117.982 191.582 127.565 182.404C140.783 169.744 151.391 144.003 156.758 111.559C157.802 105.248 158.659 98.3391 158.661 96.2064C158.667 91.3902 157.177 90.8648 148.498 92.6205C136.272 95.0933 123.753 95.79 99.5869 95.34C80.4423 94.9835 74.262 94.5753 67.1536 93.2C56.6352 91.1632 55.6924 91.1263 54.2263 92.6926ZM62.5318 101.873C62.5327 105.681 66.1313 124.075 68.677 133.279C77.0961 163.719 90.1371 183.13 103.682 185.383C119.817 188.067 136.796 163.874 145.739 125.459C147.877 116.274 150.649 100.475 150.188 100.105C150.02 99.9726 146.349 100.437 142.027 101.136C136.151 102.089 127.296 102.427 106.901 102.477C81.9278 102.537 71.1783 101.916 64.1494 100.004C62.8738 99.657 62.5318 100.053 62.5318 101.873ZM40.2684 104.266C37.7754 106.93 43.866 135.215 51.0678 154.415C57.3193 171.083 66.0777 185.736 69.789 185.736C74.1002 185.736 74.665 182.245 71.1506 177.318C65.0627 168.783 58.4054 153.301 53.802 136.968C51.4449 128.606 47.7558 110.539 47.7465 107.314C47.7363 103.622 42.7669 101.596 40.2684 104.266ZM166.193 104.04C165.633 104.639 164.747 107.867 164.222 111.212C160.349 135.939 151.971 160.714 142.506 175.426C137.945 182.515 137.676 183.414 139.666 184.879C143.886 187.985 149.198 181.922 156.879 165.226C162.423 153.178 166.234 141.354 169.634 125.659C173.449 108.04 173.701 105.746 171.98 104.22C170.226 102.665 167.558 102.582 166.193 104.04Z" fill="#2CB4F7"/>
<circle cx="79.1704" cy="169.983" r="4.62184" fill="#2CB4F7"/>
<circle cx="94.8847" cy="169.983" r="4.62184" fill="#2CB4F7"/>
<circle cx="110.599" cy="169.983" r="4.62184" fill="#2CB4F7"/>
</g>
</svg>
