<svg width="25" height="24" viewBox="0 0 25 24" fill="none" xmlns="http://www.w3.org/2000/svg">
<path d="M7.13101 10.9933C7.17627 11.3965 7.49777 11.7177 7.90075 11.7644C8.46381 11.8297 9.04744 11.8988 9.64557 11.8988C10.2437 11.8988 10.8273 11.8297 11.3904 11.7644C11.7934 11.7177 12.1149 11.3965 12.1601 10.9933C12.2231 10.4327 12.2881 9.85172 12.2881 9.25629C12.2881 8.66086 12.2231 8.07984 12.1601 7.51927C12.1149 7.11612 11.7934 6.79483 11.3904 6.74813C10.8273 6.68288 10.2437 6.61377 9.64557 6.61377C9.04744 6.61377 8.46381 6.68288 7.90075 6.74813C7.49777 6.79483 7.17627 7.11612 7.13101 7.51927C7.06807 8.07984 7.00305 8.66086 7.00305 9.25629C7.00305 9.85172 7.06807 10.4327 7.13101 10.9933Z" stroke="#454D61" stroke-width="2"/>
<path d="M16.7145 3.27588C17.5884 3.37002 18.4495 3.47524 19.2958 3.56933C20.1022 3.65897 20.7426 4.29882 20.8304 5.10542C20.9222 5.94853 21.0233 6.80628 21.1132 7.67685" stroke="#454D61" stroke-width="2" stroke-linecap="round"/>
<path d="M16.7145 20.7209C17.5884 20.6268 18.4495 20.5216 19.2958 20.4275C20.1022 20.3379 20.7426 19.698 20.8304 18.8914C20.9222 18.0483 21.0233 17.1905 21.1132 16.32" stroke="#454D61" stroke-width="2" stroke-linecap="round"/>
<path d="M8.05505 3.27588C7.18111 3.37002 6.32004 3.47524 5.47369 3.56933C4.66729 3.65897 4.02689 4.29882 3.93909 5.10542C3.84731 5.94853 3.74625 6.80628 3.65636 7.67685" stroke="#454D61" stroke-width="2" stroke-linecap="round"/>
<path d="M8.05505 20.7209C7.18111 20.6268 6.32004 20.5216 5.47369 20.4275C4.66729 20.3379 4.02689 19.698 3.93909 18.8914C3.84731 18.0483 3.74625 17.1905 3.65636 16.32" stroke="#454D61" stroke-width="2" stroke-linecap="round"/>
<path d="M7.4856 15.1858L7.4856 17.3863L9.64559 17.3863" stroke="#454D61" stroke-width="2" stroke-linecap="round" stroke-linejoin="round"/>
<path d="M17.7075 17.3862L17.7075 15.1858L15.5475 15.1858" stroke="#454D61" stroke-width="2" stroke-linecap="round" stroke-linejoin="round"/>
<path d="M17.7469 11.9658L15.587 11.9658" stroke="#454D61" stroke-width="2" stroke-linecap="round" stroke-linejoin="round"/>
<path d="M12.2882 17.366L12.2882 15.206" stroke="#454D61" stroke-width="2" stroke-linecap="round" stroke-linejoin="round"/>
<path d="M17.7075 9.25635L17.7075 7.05588L15.5475 7.05588" stroke="#454D61" stroke-width="2" stroke-linecap="round" stroke-linejoin="round"/>
</svg>
