<svg width="25" height="24" viewBox="0 0 25 24" fill="none" xmlns="http://www.w3.org/2000/svg">
<path d="M7.13113 10.9933C7.17639 11.3965 7.49789 11.7177 7.90088 11.7644C8.46393 11.8297 9.04756 11.8988 9.64569 11.8988C10.2438 11.8988 10.8275 11.8297 11.3905 11.7644C11.7935 11.7177 12.115 11.3965 12.1603 10.9933C12.2232 10.4327 12.2882 9.85172 12.2882 9.25629C12.2882 8.66086 12.2232 8.07984 12.1603 7.51927C12.115 7.11612 11.7935 6.79483 11.3905 6.74813C10.8275 6.68288 10.2438 6.61377 9.64569 6.61377C9.04756 6.61377 8.46393 6.68288 7.90088 6.74813C7.49789 6.79483 7.17639 7.11612 7.13113 7.51927C7.0682 8.07984 7.00317 8.66086 7.00317 9.25629C7.00317 9.85172 7.0682 10.4327 7.13113 10.9933Z" stroke="#454D61" stroke-width="2"/>
<path d="M16.7144 3.27588C17.5883 3.37002 18.4494 3.47524 19.2957 3.56933C20.1021 3.65897 20.7425 4.29882 20.8303 5.10542C20.9221 5.94853 21.0232 6.80628 21.113 7.67685" stroke="#454D61" stroke-width="2" stroke-linecap="round"/>
<path d="M16.7144 20.7209C17.5883 20.6268 18.4494 20.5216 19.2957 20.4275C20.1021 20.3379 20.7425 19.698 20.8303 18.8914C20.9221 18.0483 21.0232 17.1905 21.113 16.32" stroke="#454D61" stroke-width="2" stroke-linecap="round"/>
<path d="M8.05493 3.27588C7.18099 3.37002 6.31992 3.47524 5.47356 3.56933C4.66716 3.65897 4.02677 4.29882 3.93897 5.10542C3.84719 5.94853 3.74613 6.80628 3.65624 7.67685" stroke="#454D61" stroke-width="2" stroke-linecap="round"/>
<path d="M8.05493 20.7209C7.18099 20.6268 6.31992 20.5216 5.47356 20.4275C4.66716 20.3379 4.02677 19.698 3.93897 18.8914C3.84719 18.0483 3.74613 17.1905 3.65624 16.32" stroke="#454D61" stroke-width="2" stroke-linecap="round"/>
<path d="M7.4856 15.1858L7.4856 17.3863L9.64559 17.3863" stroke="#454D61" stroke-width="2" stroke-linecap="round" stroke-linejoin="round"/>
<path d="M17.7075 17.3862L17.7075 15.1858L15.5475 15.1858" stroke="#454D61" stroke-width="2" stroke-linecap="round" stroke-linejoin="round"/>
<path d="M17.7468 11.9658L15.5868 11.9658" stroke="#454D61" stroke-width="2" stroke-linecap="round" stroke-linejoin="round"/>
<path d="M12.2881 17.366L12.2881 15.206" stroke="#454D61" stroke-width="2" stroke-linecap="round" stroke-linejoin="round"/>
<path d="M17.7075 9.25635L17.7075 7.05588L15.5475 7.05588" stroke="#454D61" stroke-width="2" stroke-linecap="round" stroke-linejoin="round"/>
</svg>
