<svg width="33" height="32" viewBox="0 0 33 32" fill="none" xmlns="http://www.w3.org/2000/svg">
<path d="M26.4759 9.33322C26.1992 7.51005 24.6392 6.11847 22.8003 5.98056C20.8413 5.83363 18.8186 5.69132 16.75 5.69132C14.6814 5.69132 12.6588 5.83363 10.6997 5.98055C8.86085 6.11847 7.30082 7.51005 7.02416 9.33322C6.88337 10.261 6.77667 11.2084 6.77667 12.1712C6.77667 14.2459 7.27214 16.2492 7.53648 18.1387C13.9599 18.5157 19.5401 18.5157 25.9636 18.1387C26.2279 16.2492 26.7234 14.2459 26.7234 12.1712C26.7234 11.2084 26.6167 10.261 26.4759 9.33322Z" fill="#D7E0FF" fill-opacity="0.5" stroke="white" stroke-width="2" stroke-linecap="round" stroke-linejoin="round"/>
<path d="M23.3831 19.5585C23.3335 18.6397 22.5767 17.9462 21.6591 17.8798C20.079 17.7655 18.4362 17.6355 16.7501 17.6355C15.0639 17.6355 13.4212 17.7655 11.841 17.8798C10.9234 17.9462 10.1666 18.6397 10.1171 19.5585C9.95617 22.5414 10.2633 26.3088 10.2633 26.3088L16.7501 26.3088L23.2368 26.3088C23.2368 26.3088 23.544 22.5414 23.3831 19.5585Z" fill="#2CB4F6" stroke="white" stroke-width="2" stroke-linecap="round" stroke-linejoin="round"/>
<path d="M11.063 16.8757C11.0063 15.9657 10.3346 15.1816 9.43859 15.0132C8.96334 14.9239 8.47774 14.8545 7.98407 14.8545C7.49041 14.8545 7.00481 14.9239 6.52956 15.0132C5.63353 15.1816 4.96183 15.9657 4.90516 16.8757C4.82859 18.1053 4.75001 19.3795 4.75001 20.685C4.75001 22.5517 5.00113 26.3071 5.00113 26.3071L10.9765 26.3071C10.9765 26.3071 11.2181 22.5517 11.2181 20.685C11.2181 19.3795 11.1396 18.1053 11.063 16.8757Z" fill="#2CB4F6" stroke="white" stroke-width="2" stroke-linecap="round" stroke-linejoin="round"/>
<path d="M28.595 16.8757C28.5383 15.9657 27.8666 15.1816 26.9706 15.0132C26.4953 14.9239 26.0097 14.8545 25.5161 14.8545C25.0224 14.8545 24.5368 14.9239 24.0615 15.0132C23.1655 15.1816 22.4938 15.9657 22.4371 16.8757C22.3606 18.1053 22.282 19.3795 22.282 20.685C22.282 22.5517 22.5331 26.3071 22.5331 26.3071L28.5085 26.3071C28.5085 26.3071 28.7501 22.5517 28.7501 20.685C28.7501 19.3795 28.6715 18.1053 28.595 16.8757Z" fill="#2CB4F6" stroke="white" stroke-width="2" stroke-linecap="round" stroke-linejoin="round"/>
</svg>
