<svg width="25" height="26" viewBox="0 0 25 26" fill="none" xmlns="http://www.w3.org/2000/svg">
<path d="M5.2143 7.27482C4.49162 11.3233 4.30207 17.109 4.71551 20.86C4.78835 21.5208 5.358 21.9998 6.02281 21.9998H18.6785C19.3433 21.9998 19.913 21.5208 19.9858 20.86C20.3993 17.109 20.2097 11.3233 19.487 7.27482C19.3105 6.28593 18.539 5.5374 17.5444 5.39659C16.1363 5.19726 14.1449 5 12.3507 5C10.5564 5 8.56497 5.19726 7.15696 5.39659C6.16236 5.5374 5.39083 6.28593 5.2143 7.27482Z" stroke="white" stroke-width="2" stroke-linecap="round" stroke-linejoin="round"/>
<path d="M14.3906 14.1799H15.7506" stroke="white" stroke-width="2" stroke-linecap="round" stroke-linejoin="round"/>
<path d="M10.311 19.6199V21.9999H14.391V19.6199C14.391 18.4933 13.4777 17.58 12.351 17.58C11.2244 17.58 10.311 18.4933 10.311 19.6199Z" stroke="white" stroke-width="2" stroke-linecap="round" stroke-linejoin="round"/>
<path d="M8.95093 10.1001H10.3109" stroke="white" stroke-width="2" stroke-linecap="round" stroke-linejoin="round"/>
<path d="M14.3906 10.1001H15.7506" stroke="white" stroke-width="2" stroke-linecap="round" stroke-linejoin="round"/>
<path d="M8.95093 14.1799H10.3109" stroke="white" stroke-width="2" stroke-linecap="round" stroke-linejoin="round"/>
<circle cx="23" cy="2" r="2" fill="#F7CA28"/>
</svg>
