<svg width="24" height="25" viewBox="0 0 24 25" fill="none" xmlns="http://www.w3.org/2000/svg">
<path d="M0 24.1114L1.72195 17.7088C0.333239 15.2147 -0.107966 12.3042 0.47929 9.51154C1.06655 6.71885 2.64287 4.23125 4.91901 2.50522C7.19515 0.77918 10.0184 -0.0695088 12.8707 0.114884C15.7231 0.299276 18.4131 1.50438 20.4473 3.50906C22.4815 5.51374 23.7233 8.18352 23.9449 11.0285C24.1665 13.8735 23.353 16.7028 21.6537 18.9973C19.9544 21.2918 17.4832 22.8976 14.6937 23.52C11.9042 24.1424 8.9835 23.7396 6.46746 22.3856L0 24.1114ZM6.77931 19.9897L7.17929 20.2265C9.00171 21.3049 11.1303 21.7512 13.2333 21.4958C15.3362 21.2404 17.2955 20.2976 18.8058 18.8144C20.3161 17.3312 21.2925 15.391 21.5828 13.2959C21.8732 11.2009 21.4613 9.06884 20.4112 7.23196C19.3611 5.39508 17.7318 3.95658 15.7774 3.14064C13.8229 2.32469 11.6529 2.17714 9.60563 2.72096C7.55837 3.26478 5.7488 4.46944 4.45892 6.1472C3.16904 7.82496 2.4713 9.88158 2.47445 11.9966C2.47273 13.7502 2.95853 15.47 3.87777 16.9643L4.1286 17.3772L3.16594 20.9507L6.77931 19.9897Z" fill="white"/>
</svg>
