<svg width="26" height="25" viewBox="0 0 26 25" fill="none" xmlns="http://www.w3.org/2000/svg">
<path d="M13.0052 0.559998C6.24219 0.559998 0.998047 5.51597 0.998047 12.207C0.998047 15.7071 2.43291 18.7329 4.76831 20.8221C4.96342 20.9962 5.0835 21.2424 5.0895 21.5066L5.15554 23.6438C5.16035 23.8011 5.20371 23.9548 5.28182 24.0913C5.35992 24.2279 5.47038 24.3432 5.60348 24.4271C5.73658 24.511 5.88824 24.5609 6.04515 24.5725C6.20206 24.584 6.3594 24.5568 6.50335 24.4933L8.88678 23.4427C9.0879 23.3527 9.31603 23.3377 9.52916 23.3947C10.6248 23.6949 11.7895 23.857 13.0052 23.857C19.7683 23.857 25.0124 18.901 25.0124 12.21C25.0124 5.51897 19.7683 0.559998 13.0052 0.559998Z" fill="white"/>
<path d="M5.79492 15.614L9.32204 10.0187C9.45472 9.80801 9.62964 9.62714 9.83575 9.48749C10.0419 9.34784 10.2747 9.25244 10.5195 9.2073C10.7644 9.16217 11.0159 9.16829 11.2583 9.22528C11.5006 9.28226 11.7285 9.38887 11.9276 9.53838L14.7343 11.6426C14.8596 11.7364 15.012 11.7869 15.1685 11.7864C15.3251 11.7858 15.4772 11.7343 15.6018 11.6396L19.3901 8.76392C19.8944 8.37968 20.5548 8.98605 20.2186 9.52337L16.6885 15.1157C16.5558 15.3264 16.3808 15.5073 16.1747 15.6469C15.9686 15.7866 15.7358 15.882 15.491 15.9271C15.2461 15.9722 14.9946 15.9661 14.7522 15.9091C14.5099 15.8521 14.282 15.7455 14.0829 15.596L11.2762 13.4917C11.1509 13.3979 10.9985 13.3475 10.8419 13.348C10.6854 13.3486 10.5333 13.4001 10.4087 13.4948L6.62042 16.3705C6.11612 16.7547 5.45572 16.1513 5.79492 15.614Z" fill="url(#paint0_radial_523_248)"/>
<defs>
<radialGradient id="paint0_radial_523_248" cx="0" cy="0" r="1" gradientUnits="userSpaceOnUse" gradientTransform="translate(5.02046 24.5744) scale(26.4158 26.4158)">
<stop stop-color="#0099FF"/>
<stop offset="0.6" stop-color="#A033FF"/>
<stop offset="0.9" stop-color="#FF5280"/>
<stop offset="1" stop-color="#FF7061"/>
</radialGradient>
</defs>
</svg>
