<svg width="23" height="20" viewBox="0 0 23 20" fill="none" xmlns="http://www.w3.org/2000/svg">
<path d="M1.35369 9.14978C1.35369 9.14978 11.1191 5.03674 14.506 3.58843C15.8043 3.00916 20.2072 1.15533 20.2072 1.15533C20.2072 1.15533 22.2393 0.344342 22.07 2.31395C22.0135 3.12502 21.5619 5.96358 21.1104 9.03393C20.433 13.3788 19.6992 18.129 19.6992 18.129C19.6992 18.129 19.5863 19.4615 18.6267 19.6932C17.6671 19.9249 16.0865 18.8822 15.8043 18.6504C15.5784 18.4767 11.5707 15.8698 10.1031 14.5953C9.70792 14.2477 9.25636 13.5526 10.1595 12.7415C12.1916 10.8298 14.6189 8.45465 16.0865 6.94846C16.7639 6.25325 17.4412 4.63121 14.6188 6.60082C10.6111 9.43946 6.65977 12.1043 6.65977 12.1043C6.65977 12.1043 5.75658 12.6835 4.06317 12.1622C2.36969 11.6409 0.394016 10.9456 0.394016 10.9456C0.394016 10.9456 -0.960648 10.0767 1.35369 9.14978Z" fill="white"/>
</svg>
