<svg width="47" height="59" viewBox="0 0 47 59" fill="none" xmlns="http://www.w3.org/2000/svg">
<path fill-rule="evenodd" clip-rule="evenodd" d="M20.5483 0.253053C13.1786 1.34487 7.50203 6.6563 7.13635 12.8026C7.02032 14.7577 7.11158 15.3336 7.72137 16.4838C9.68081 20.1801 14.5915 21.8857 23.3007 21.8952C30.5437 21.903 34.8432 20.8768 37.5223 18.5013C39.2872 16.9364 39.8187 15.7096 39.8054 13.2303C39.7725 6.99124 34.2025 1.54399 26.6277 0.344087C23.8831 -0.0908493 22.9621 -0.104722 20.5483 0.253053ZM20.4926 2.84678C15.6497 3.6918 11.4147 7.15683 10.2091 11.2608C9.32458 14.2724 10.2248 16.3705 12.9703 17.6964C18.4148 20.3257 30.7151 20.0078 34.9733 17.128C36.6566 15.9894 37.1657 14.8871 36.9757 12.7896C36.6615 9.3188 33.8391 5.62285 30.2696 4.00824C27.4842 2.74823 23.6605 2.29393 20.4926 2.84678ZM14.6756 11.4785C12.9449 12.1752 12.0956 13.2399 12.6014 14.078C13.0574 14.8337 14.0648 14.8412 15.1315 14.0973C15.5875 13.7794 16.2139 13.5193 16.5242 13.5193C16.8345 13.5193 17.4609 13.7794 17.9168 14.0973C19.2388 15.0192 20.7612 14.708 20.7612 13.5156C20.7612 12.835 19.0931 11.529 17.8054 11.2016C16.3469 10.8308 16.267 10.8378 14.6756 11.4785ZM28.593 11.3663C26.9514 12.0116 26.3018 12.6333 26.3018 13.5586C26.3018 14.6883 27.5397 14.962 28.8645 14.1256C30.0597 13.3708 30.5567 13.3656 31.6055 14.0973C33.0904 15.1331 34.7419 14.5664 34.3315 13.1618C33.8827 11.6253 30.5704 10.5889 28.593 11.3663ZM5.12183 23.1954C4.80634 23.5327 4.8034 24.2555 5.10846 26.5911C6.28341 35.5892 8.5453 43.2195 11.8136 49.2101C14.6224 54.3585 17.6607 57.2158 21.3726 58.2001C24.6983 59.0819 27.6013 58.0626 30.9801 54.8267C35.6408 50.3629 39.381 41.2867 41.2733 29.8475C41.6413 27.6222 41.9434 25.1863 41.9444 24.4343C41.9463 22.7362 41.421 22.551 38.3609 23.17C34.0503 24.0419 29.636 24.2875 21.1154 24.1289C14.3653 24.0032 12.1862 23.8592 9.67983 23.3743C5.97118 22.6562 5.63874 22.6432 5.12183 23.1954ZM8.05023 26.4324C8.05055 27.7748 9.31937 34.2604 10.217 37.5058C13.1854 48.2385 17.7835 55.0825 22.5593 55.8769C28.2482 56.8234 34.2351 48.2931 37.388 34.7485C38.1419 31.5098 39.1193 25.9394 38.9567 25.8091C38.8977 25.7623 37.6031 25.9258 36.0794 26.1726C34.0076 26.5085 30.8852 26.6275 23.6944 26.6452C14.889 26.6665 11.0989 26.4475 8.62059 25.7733C8.17082 25.651 8.05023 25.7906 8.05023 26.4324ZM0.20042 27.276C-0.678589 28.2153 1.4689 38.1884 4.00816 44.9581C6.21236 50.8348 9.30046 56.0015 10.609 56.0015C12.1291 56.0015 12.3283 54.7706 11.0891 53.0335C8.9426 50.0239 6.59532 44.5654 4.97223 38.8063C4.14113 35.858 2.84038 29.488 2.83712 28.3508C2.83354 27.0492 1.08139 26.3348 0.20042 27.276ZM44.6 27.1966C44.4025 27.4075 44.0899 28.5456 43.9051 29.7252C42.5395 38.4436 39.5854 47.179 36.2483 52.3662C34.6402 54.8657 34.545 55.1827 35.2467 55.6992C36.7349 56.7945 38.6076 54.6565 41.316 48.77C43.2706 44.5217 44.6143 40.3527 45.8131 34.8191C47.1585 28.6068 47.2471 27.7979 46.6403 27.2598C46.022 26.7116 45.0814 26.6824 44.6 27.1966Z" fill="white"/>
</svg>
