<svg width="12" height="12" viewBox="0 0 12 12" fill="none" xmlns="http://www.w3.org/2000/svg">
<path fill-rule="evenodd" clip-rule="evenodd" d="M10.4872 7.64057C10.2527 7.45176 9.9782 7.31887 9.68449 7.25201C9.39079 7.18516 9.08567 7.18611 8.79239 7.25479C8.35174 7.43752 8.06701 8.12787 7.78227 8.47304C7.72223 8.55579 7.63401 8.61382 7.53416 8.63625C7.4343 8.65868 7.32969 8.64396 7.23993 8.59486C5.62668 7.96405 4.27443 6.80725 3.40284 5.31235C3.3285 5.21906 3.29331 5.10062 3.30469 4.98195C3.31607 4.86329 3.37313 4.75366 3.46385 4.67615C3.78142 4.36229 4.01459 3.97355 4.14178 3.54588C4.17003 3.07415 4.06177 2.60427 3.82993 2.19226C3.6507 1.61465 3.3096 1.10032 2.84693 0.710056C2.6083 0.602907 2.34371 0.566981 2.08509 0.606612C1.82646 0.646242 1.58484 0.759736 1.38938 0.933402C1.05006 1.22568 0.780722 1.59022 0.601213 2.00018C0.421704 2.41014 0.336593 2.85508 0.352147 3.30223C0.353195 3.55333 0.385069 3.80336 0.447058 4.04672C0.604478 4.63142 0.846567 5.19003 1.16566 5.7049C1.39589 6.09929 1.64708 6.4811 1.91817 6.8487C2.79917 8.05611 3.90661 9.08127 5.17902 9.86726C5.81752 10.2667 6.49994 10.5914 7.21281 10.8351C7.95333 11.1702 8.77093 11.2989 9.57879 11.2073C10.0391 11.1378 10.4752 10.9564 10.8488 10.679C11.2223 10.4017 11.5219 10.0369 11.7211 9.61685C11.8381 9.36308 11.8736 9.07939 11.8227 8.80468C11.7007 8.24292 10.9482 7.91129 10.4872 7.64057Z" fill="white"/>
</svg>
